<svg width="353" height="373" viewBox="0 0 353 373" fill="none" xmlns="http://www.w3.org/2000/svg">
<rect width="436" height="373" rx="45" fill="#FDF4E5"/>
<path d="M93.66 220.195C107.773 206.117 107.773 183.293 93.66 169.215C79.5473 155.137 56.666 155.137 42.5533 169.215C28.4406 183.293 28.4406 206.117 42.5533 220.195C56.666 234.273 79.5473 234.273 93.66 220.195Z" fill="#240E54"/>
<path d="M104.246 194.706H31.9683V257.231H104.246V194.706Z" fill="#240E54"/>
<path d="M310.907 88.4621L219.985 104.74L210.384 33.7549L170.597 87.2436L104.246 50.9365L125.01 112.533L51.676 132.421L159.078 158.216L132.084 210.987L179.382 174.384L236.03 246.09L232.715 164.754L287.226 171.58L247.72 132.366L310.907 88.4621Z" fill="white"/>
<path d="M200.776 274.796H224.761C227.756 274.793 230.627 273.605 232.744 271.493C234.862 269.38 236.053 266.516 236.056 263.529V228.009L249.187 223.745L243.356 181.799C243.163 179.853 242.89 177.902 242.549 176.001C236.263 141.232 205.965 116.006 170.504 116.006C130.137 116.006 97.2954 148.766 97.2954 189.034C97.2954 189.421 97.2996 189.818 97.3078 190.225C97.3374 192.048 97.4337 193.868 97.5922 195.638C97.9248 200.004 98.4998 205.072 99.1075 210.436C100.306 220.988 101.662 232.95 101.662 243.718V304.247H187.565V287.969C187.57 284.476 188.964 281.128 191.441 278.659C193.918 276.189 197.275 274.8 200.776 274.796Z" fill="#495BF5"/>
<path d="M65.0338 242.71C69.9355 244.009 74.7423 246.089 78.539 249.516C82.1695 252.793 84.8083 257.422 85.0213 262.369C85.1269 264.812 84.6483 267.373 83.1563 269.367C81.5183 271.552 78.9602 272.777 76.4348 273.633C74.259 274.374 71.962 275.068 69.6464 275.183C67.7317 275.276 65.4114 274.957 64.3484 273.148C63.1999 271.194 64.2194 268.982 65.5093 267.392C66.9438 265.624 68.8336 264.167 70.6939 262.874C74.7786 260.042 79.3993 258.069 84.2737 257.078C88.9625 256.123 94.2449 255.837 98.7985 257.543C100.931 258.344 102.901 259.656 104.143 261.6C105.253 263.336 105.629 265.463 105.651 267.491C105.675 269.683 105.287 271.937 104.376 273.938C103.422 276.034 101.697 277.583 99.8879 278.957C97.2351 280.972 93.8269 282.642 90.3954 282.158C89.3821 282.014 88.3533 281.668 87.5545 281.012C85.9848 279.725 86.0004 277.419 86.2179 275.569C86.7386 271.19 89.3837 267.3 92.4624 264.265C98.7876 258.028 107.526 254.38 116.344 253.69C120.763 253.334 125.21 253.749 129.486 254.915C131.817 255.558 134.251 256.36 136.186 257.84C137.11 258.529 137.857 259.427 138.366 260.459C138.875 261.491 139.132 262.629 139.115 263.779C139.09 266.003 138.102 268.212 136.27 269.526C134.532 270.767 132.229 271.168 130.159 270.687C127.846 270.151 126.065 268.48 125.141 266.327C124.179 264.09 124.143 261.586 124.751 259.25C125.388 256.802 126.662 254.562 128.101 252.498C129.62 250.331 131.329 248.302 133.208 246.437C136.997 242.656 141.372 239.502 145.952 236.752C148.171 235.422 150.445 234.185 152.748 233.007C152.799 232.98 152.748 232.906 152.698 232.932C142.836 237.974 132.88 244.423 126.97 254.05C124.474 258.113 122.92 263.507 125.839 267.801C126.437 268.688 127.227 269.43 128.151 269.974C129.074 270.517 130.107 270.848 131.175 270.942C133.196 271.125 135.298 270.537 136.829 269.193C138.36 267.849 139.179 265.803 139.201 263.767C139.219 262.685 138.996 261.613 138.549 260.628C138.101 259.642 137.44 258.768 136.613 258.068C134.748 256.475 132.307 255.637 129.982 254.958C127.684 254.291 125.327 253.847 122.943 253.633C113.735 252.797 104.221 255.275 96.6787 260.626C92.9488 263.262 89.5297 266.649 87.5451 270.808C86.6127 272.76 86.0361 274.892 86.0377 277.062C86.0377 278.699 86.3811 280.344 87.8109 281.31C89.9867 282.778 92.9675 282.46 95.3048 281.62C97.3159 280.894 99.1435 279.718 100.778 278.364C101.697 277.599 102.643 276.783 103.371 275.828C103.981 275.002 104.465 274.09 104.807 273.123C105.55 271.052 105.857 268.85 105.708 266.655C105.576 264.601 105.038 262.549 103.758 260.899C100.844 257.141 95.5675 256.23 91.087 256.262C83.2246 256.355 75.602 258.975 69.3511 263.733C67.5887 265.08 65.7518 266.582 64.6064 268.511C63.6584 270.109 63.332 272.131 64.6064 273.662C65.8062 275.11 67.8902 275.351 69.6542 275.265C72.0304 275.149 74.3958 274.43 76.629 273.656C79.1653 272.779 81.7219 271.515 83.3257 269.284C86.1837 265.308 85.3352 259.619 83.262 255.503C80.9308 250.886 76.8606 247.475 72.2589 245.237C69.9479 244.133 67.535 243.255 65.054 242.617C64.998 242.603 64.9809 242.691 65.0369 242.705L65.0338 242.71Z" fill="white" stroke="white"/>
<path d="M225.519 87.1972C222.683 84.3555 220.369 80.1528 222.088 76.1143C222.498 75.1501 223.146 74.2261 224.065 73.6851C225.153 73.0464 226.435 73.0851 227.639 73.2944C229.047 73.5409 233.009 74.3796 232.081 76.6135C231.377 78.3188 228.325 78.4242 226.797 78.4645C224.853 78.5166 222.917 78.2096 221.086 77.5592C219.25 76.905 217.356 75.9159 216.112 74.3889C214.735 72.7115 214.777 70.7504 215.917 68.9707C216.992 67.2902 218.479 66.5027 220.434 66.2857C221.779 66.1306 223.299 66.2578 224.413 67.0995C225.638 68.0297 225.412 69.2699 224.52 70.4342C223.389 71.9085 221.586 72.7596 219.824 73.2246C216.367 74.1238 212.609 73.7223 209.341 72.3332C207.677 71.6301 206.14 70.6597 204.791 69.4606C203.317 68.1444 201.342 66.1632 202.149 64.0099C203.038 61.6535 206.303 61.3109 207.615 63.506C209.013 65.8609 206.873 68.3444 204.918 69.4637C200.633 71.9193 195.399 72.1674 190.583 71.9441C190.443 71.9441 190.428 72.155 190.566 72.1612C195.583 72.3999 201.379 72.1751 205.681 69.2498C207.307 68.1444 208.687 66.2174 208.123 64.1633C207.656 62.4751 205.734 61.4008 204.049 61.9124C202.365 62.424 201.373 64.3308 201.874 66.0035C202.472 67.9739 204.464 69.6389 206.091 70.7876C209.549 73.2277 213.949 74.3455 218.15 73.7703C220.17 73.4928 222.268 72.8293 223.832 71.462C224.815 70.6 226.06 69.0513 225.254 67.7165C223.718 65.1757 218.967 65.678 217.036 67.3228C215.707 68.4529 214.572 70.338 214.81 72.1379C215.093 74.2742 217.001 75.8043 218.776 76.7732C220.81 77.8772 223.061 78.5223 225.372 78.663C227.268 78.7792 229.815 78.7544 231.448 77.6413C232.981 76.598 232.406 74.9268 230.982 74.1222C230.084 73.6138 229.05 73.3688 228.048 73.1611C226.94 72.9301 225.757 72.8045 224.665 73.1735C222.644 73.8556 221.574 76.0957 221.344 78.0816C221.076 80.3698 221.81 82.6332 223.039 84.5462C223.706 85.5578 224.479 86.4958 225.345 87.3444C225.443 87.4437 225.61 87.301 225.51 87.2018L225.519 87.1972Z" fill="#240E54"/>
<path d="M172.712 54.0615L170.813 61.3245L164.747 60.2114L168.121 63.5336L163.374 68.9022L168.755 67.955L168.28 75.218L172.712 67.6387L175.719 71.4291L174.611 66.6915L181.892 64.9552L175.719 62.4283L178.093 58.6395L173.82 60.2192L172.712 54.0615Z" fill="#80BAEE"/>
<mask id="mask0_555_17795" style="mask-type:luminance" maskUnits="userSpaceOnUse" x="31" y="112" width="264" height="146">
<path d="M291.56 112.532H35.0936C34.2662 112.536 33.4739 112.866 32.8894 113.45C32.3048 114.034 31.9754 114.825 31.9729 115.65V254.522C31.9754 255.348 32.3054 256.14 32.891 256.724C33.4766 257.308 34.2701 257.638 35.0982 257.64H291.56C292.388 257.638 293.182 257.308 293.767 256.724C294.353 256.14 294.683 255.348 294.685 254.522V115.65C294.683 114.824 294.353 114.032 293.767 113.448C293.182 112.864 292.388 112.535 291.56 112.532Z" fill="white"/>
</mask>
<g mask="url(#mask0_555_17795)">
<path d="M81.5601 166.985C82.5101 166.761 83.4986 166.571 84.5253 166.414C83.5089 166.591 82.5246 166.779 81.5725 166.98L81.5601 166.985Z" fill="#F74945"/>
<path d="M84.5256 166.415C102.647 163.254 130.66 163.705 130.66 163.705C130.66 163.705 146.474 159.146 160.556 159.032C174.638 158.919 171.606 167.602 171.606 167.602C171.606 167.602 172.495 173.768 158.969 176.553C158.969 176.553 151.695 175.611 145.557 173.865C139.711 172.202 104.987 163.248 84.5256 166.415Z" fill="#F74945"/>
<path d="M202.214 184.136C204.609 180.427 222.024 153.717 222.024 153.717L219.884 152.492C219.884 152.492 222.351 147.715 225.79 143.292C229.229 138.869 237.362 137.458 242.834 142.337L227.325 165.719C227.325 165.719 216.95 181.813 213.672 186.53C210.395 191.248 208.769 192.492 202.172 194.475C195.575 196.458 180.076 201.253 180.076 201.253L162.474 206.877C162.474 206.877 186.785 194.869 192.934 192.027C199.084 189.186 199.817 187.845 202.214 184.136Z" fill="#F74945"/>
<path d="M73.6558 169.397C75.7197 168.442 78.4441 167.647 81.5818 166.982C89.0758 165.52 96.3646 166.206 107.93 169.152C119.496 172.097 135.519 177.39 143.364 179.945C151.209 182.5 152.634 182.821 155.02 182.58C157.406 182.34 181.751 179.325 181.751 179.325L184.826 178.612C184.826 178.612 197.385 163.419 203.563 156.531C209.74 149.643 215.794 150.26 219.881 152.487L222.021 153.711C222.021 153.711 204.606 180.421 202.211 184.131C199.816 187.84 199.09 189.18 192.942 192.021C186.794 194.863 162.481 206.871 162.481 206.871C162.481 206.871 155.225 210.578 148 209.516C140.775 208.454 136.257 207.417 115.558 205.133C94.8586 202.85 79.0626 210.916 67.5823 221.604C56.1021 232.291 -5.91646 292.654 -5.91646 292.654L-9.89966 221.929C39.6533 188 59.8413 175.784 73.6558 169.397Z" fill="#F74945"/>
<path d="M143.366 179.939C135.516 177.384 119.504 172.092 107.932 169.146C96.36 166.201 89.0774 165.515 81.5835 166.976C82.5294 166.776 83.5137 166.588 84.5363 166.41C104.998 163.243 139.721 172.197 145.566 173.861C151.704 175.606 158.978 176.549 158.978 176.549L181.759 179.327C181.759 179.327 157.424 182.345 155.028 182.582C152.631 182.819 151.217 182.497 143.366 179.939Z" fill="#F74945"/>
<path d="M218.658 190.418C220.265 189.041 243.311 170.145 243.311 170.145C243.311 170.145 251.431 168.594 253.96 177.053L218.728 195.13L180.088 201.254C180.088 201.254 208.73 193.889 212.103 192.958C215.475 192.028 217.049 191.793 218.658 190.418Z" fill="#F74945"/>
<path d="M213.679 186.53C216.956 181.813 227.331 165.719 227.331 165.719C227.331 165.719 238.568 156.357 244.716 151.373C250.864 146.389 259.275 147.555 263.054 154.029L243.306 170.151C243.306 170.151 220.26 189.048 218.653 190.424C217.046 191.801 215.472 192.035 212.098 192.964C208.724 193.892 180.083 201.259 180.083 201.259C180.083 201.259 195.589 196.464 202.18 194.481C208.771 192.499 210.401 191.255 213.679 186.53Z" fill="#F74945"/>
<path d="M81.5601 167.98C82.5096 167.756 83.4996 167.569 84.5253 167.409C83.5089 167.588 82.5246 167.777 81.5725 167.977L81.5601 167.98Z" fill="#F74945"/>
<path d="M84.5256 167.41C102.647 164.249 130.66 164.702 130.66 164.702C130.66 164.702 146.474 160.141 160.556 160.027C174.638 159.914 171.606 168.597 171.606 168.597C171.606 168.597 172.495 174.764 158.969 177.549C158.969 177.549 151.695 176.606 145.557 174.86C139.711 173.197 104.987 164.243 84.5256 167.41Z" fill="#F74945"/>
<path d="M202.214 185.132C204.609 181.422 222.024 154.712 222.024 154.712L219.884 153.488C219.884 153.488 222.351 148.71 225.79 144.287C229.229 139.864 237.362 138.453 242.834 143.332L227.325 166.716C227.325 166.716 216.95 182.808 213.672 187.525C210.395 192.243 208.769 193.488 202.172 195.47C195.575 197.453 180.076 202.248 180.076 202.248L162.486 207.874C162.486 207.874 186.797 195.864 192.947 193.022C199.096 190.181 199.818 188.841 202.214 185.132Z" fill="#F74945"/>
<path d="M73.6558 170.39C75.7197 169.435 78.4441 168.64 81.5818 167.977C89.0758 166.513 96.3646 167.201 107.93 170.147C119.496 173.092 135.519 178.385 143.364 180.94C151.209 183.495 152.634 183.816 155.02 183.575C157.406 183.335 181.751 180.32 181.751 180.32L184.826 179.607C184.826 179.607 197.385 164.414 203.563 157.526C209.74 150.638 215.794 151.255 219.881 153.482L222.021 154.706C222.021 154.706 204.606 181.416 202.211 185.126C199.816 188.835 199.09 190.175 192.942 193.016C186.794 195.858 162.481 207.868 162.481 207.868C162.481 207.868 155.225 211.573 148 210.503C140.775 209.434 136.257 208.404 115.558 206.121C94.8586 203.837 79.0626 211.911 67.5823 222.599C56.1021 233.286 -5.91646 293.649 -5.91646 293.649L-9.89966 222.924C39.6533 189 59.8413 176.779 73.6558 170.39Z" fill="#F74945"/>
<path d="M143.366 180.937C135.516 178.382 119.504 173.089 107.932 170.144C96.36 167.198 89.0774 166.513 81.5835 167.973C82.5294 167.767 83.5137 167.578 84.5363 167.406C104.998 164.239 139.721 173.193 145.566 174.857C151.704 176.602 158.978 177.545 158.978 177.545L181.759 180.323C181.759 180.323 157.424 183.341 155.028 183.578C152.631 183.816 151.217 183.493 143.366 180.937Z" fill="#F74945"/>
<mask id="mask1_555_17795" style="mask-type:luminance" maskUnits="userSpaceOnUse" x="81" y="166" width="101" height="18">
<path d="M143.366 180.936C135.516 178.381 119.504 173.088 107.932 170.143C96.36 167.197 89.0774 166.512 81.5835 167.972C82.5294 167.766 83.5137 167.577 84.5363 167.405C104.998 164.238 139.721 173.192 145.566 174.856C151.704 176.601 158.978 177.544 158.978 177.544L181.759 180.322C181.759 180.322 157.424 183.34 155.028 183.577C152.631 183.815 151.217 183.492 143.366 180.936Z" fill="white"/>
</mask>
<g mask="url(#mask1_555_17795)">
<path style="mix-blend-mode:multiply" d="M298.935 213.395C300.974 202.41 243.183 182.525 169.854 168.982C96.5261 155.438 35.4289 153.364 33.3899 164.349C31.3509 175.333 89.1423 195.218 162.471 208.761C235.799 222.305 296.896 224.379 298.935 213.395Z" fill="white"/>
</g>
<path d="M218.658 191.409C220.265 190.033 243.311 171.138 243.311 171.138C243.311 171.138 251.431 169.588 253.96 178.044L218.728 196.12L180.088 202.244C180.088 202.244 208.73 194.879 212.103 193.949C215.475 193.018 217.049 192.787 218.658 191.409Z" fill="#F74945"/>
<path d="M213.679 187.525C216.956 182.808 227.331 166.716 227.331 166.716C227.331 166.716 238.568 157.353 244.716 152.369C250.864 147.385 259.275 148.552 263.054 155.026L243.306 171.149C243.306 171.149 220.265 190.037 218.658 191.41C217.051 192.784 215.477 193.021 212.103 193.95C208.729 194.878 180.088 202.245 180.088 202.245C180.088 202.245 195.593 197.45 202.184 195.468C208.775 193.485 210.401 192.243 213.679 187.525Z" fill="#F74945"/>
<path d="M202.214 184.136C204.609 180.427 222.024 153.717 222.024 153.717L219.884 152.492C219.884 152.492 222.351 147.715 225.79 143.292C229.229 138.869 237.362 137.458 242.834 142.337L227.325 165.719C227.325 165.719 216.95 181.813 213.672 186.53C210.395 191.248 208.769 192.492 202.172 194.475C195.575 196.458 180.076 201.253 180.076 201.253L162.474 206.877C162.474 206.877 186.785 194.869 192.934 192.027C199.084 189.186 199.817 187.845 202.214 184.136Z" fill="#F74945"/>
<path d="M73.6558 169.397C75.7197 168.442 78.4441 167.647 81.5818 166.982C89.0758 165.52 96.3646 166.206 107.93 169.152C119.496 172.097 135.519 177.39 143.364 179.945C151.209 182.5 152.634 182.821 155.02 182.58C157.406 182.34 181.751 179.325 181.751 179.325L184.826 178.612C184.826 178.612 197.385 163.419 203.563 156.531C209.74 149.643 215.794 150.26 219.881 152.487L222.021 153.711C222.021 153.711 204.606 180.421 202.211 184.131C199.816 187.84 199.09 189.18 192.942 192.021C186.794 194.863 162.481 206.871 162.481 206.871C162.481 206.871 155.225 210.578 148 209.516C140.775 208.454 136.257 207.417 115.558 205.133C94.8586 202.85 79.0626 210.916 67.5823 221.604C56.1021 232.291 -5.91646 292.654 -5.91646 292.654L-9.89966 221.929C39.6533 188 59.8413 175.784 73.6558 169.397Z" fill="#F74945"/>
<path d="M218.658 190.418C220.265 189.041 243.311 170.145 243.311 170.145C243.311 170.145 251.431 168.594 253.96 177.053L218.728 195.13L180.088 201.254C180.088 201.254 208.73 193.889 212.103 192.958C215.475 192.028 217.049 191.793 218.658 190.418Z" fill="#F74945"/>
<path d="M213.679 186.53C216.956 181.813 227.331 165.719 227.331 165.719C227.331 165.719 238.568 156.357 244.716 151.373C250.864 146.389 259.275 147.555 263.054 154.029L243.306 170.151C243.306 170.151 220.26 189.048 218.653 190.424C217.046 191.801 215.472 192.035 212.098 192.964C208.724 193.892 180.083 201.259 180.083 201.259C180.083 201.259 195.589 196.464 202.18 194.481C208.771 192.499 210.401 191.255 213.679 186.53Z" fill="#F74945"/>
<path d="M202.214 185.132C204.609 181.422 222.024 154.712 222.024 154.712L219.884 153.488C219.884 153.488 222.351 148.71 225.79 144.287C229.229 139.864 237.362 138.453 242.834 143.332L227.325 166.716C227.325 166.716 216.95 182.808 213.672 187.525C210.395 192.243 208.769 193.488 202.172 195.47C195.575 197.453 180.076 202.248 180.076 202.248L162.486 207.874C162.486 207.874 186.797 195.864 192.947 193.022C199.096 190.181 199.818 188.841 202.214 185.132Z" fill="#F74945"/>
<path d="M73.6558 170.39C75.7197 169.435 78.4441 168.64 81.5818 167.977C89.0758 166.513 96.3646 167.201 107.93 170.147C119.496 173.092 135.519 178.385 143.364 180.94C151.209 183.495 152.634 183.816 155.02 183.575C157.406 183.335 181.751 180.32 181.751 180.32L184.826 179.607C184.826 179.607 197.385 164.414 203.563 157.526C209.74 150.638 215.794 151.255 219.881 153.482L222.021 154.706C222.021 154.706 204.606 181.416 202.211 185.126C199.816 188.835 199.09 190.175 192.942 193.016C186.794 195.858 162.481 207.868 162.481 207.868C162.481 207.868 155.225 211.573 148 210.503C140.775 209.434 136.257 208.404 115.558 206.121C94.8586 203.837 79.0626 211.911 67.5823 222.599C56.1021 233.286 -5.91646 293.649 -5.91646 293.649L-9.89966 222.924C39.6533 189 59.8413 176.779 73.6558 170.39Z" fill="#F74945"/>
<path d="M218.658 191.409C220.265 190.033 243.311 171.138 243.311 171.138C243.311 171.138 251.431 169.588 253.96 178.044L218.728 196.12L180.088 202.244C180.088 202.244 208.73 194.879 212.103 193.949C215.475 193.018 217.049 192.787 218.658 191.409Z" fill="#F74945"/>
<path d="M213.679 187.525C216.956 182.808 227.331 166.716 227.331 166.716C227.331 166.716 238.568 157.353 244.716 152.369C250.864 147.385 259.275 148.552 263.054 155.026L243.306 171.149C243.306 171.149 220.265 190.037 218.658 191.41C217.051 192.784 215.477 193.021 212.103 193.95C208.729 194.878 180.088 202.245 180.088 202.245C180.088 202.245 195.593 197.45 202.184 195.468C208.775 193.485 210.401 192.243 213.679 187.525Z" fill="#F74945"/>
<path d="M162.486 208.026C162.457 208.026 162.429 208.018 162.405 208.003C162.38 207.988 162.361 207.966 162.348 207.941C162.33 207.904 162.328 207.863 162.341 207.824C162.354 207.786 162.382 207.755 162.418 207.736C162.604 207.645 181.145 198.537 190.21 194.145C198.355 190.198 199.016 189.285 201.202 186.259C201.463 185.896 201.76 185.484 202.091 185.042C205.102 180.983 221.731 154.894 221.895 154.632C221.92 154.607 221.952 154.591 221.987 154.586C222.021 154.582 222.057 154.589 222.087 154.607C222.117 154.625 222.14 154.652 222.152 154.685C222.164 154.718 222.165 154.754 222.155 154.787C221.987 155.05 205.361 181.141 202.337 185.216C202.009 185.657 201.715 186.068 201.451 186.429C199.23 189.505 198.559 190.432 190.344 194.413C181.28 198.805 162.739 207.911 162.554 208.003C162.534 208.016 162.51 208.024 162.486 208.026Z" fill="#240E54"/>
<path d="M180.088 202.402C180.052 202.4 180.018 202.386 179.991 202.362C179.964 202.338 179.947 202.305 179.942 202.27C179.936 202.234 179.944 202.198 179.962 202.167C179.98 202.137 180.009 202.113 180.043 202.101C180.184 202.058 194.185 197.746 202.139 195.325C209.203 193.173 210.581 191.35 212.668 188.592C212.948 188.22 213.239 187.837 213.557 187.431C215.543 184.907 219.432 178.804 223.193 172.9C224.623 170.656 225.975 168.535 227.206 166.633C227.23 166.605 227.264 166.587 227.301 166.582C227.337 166.578 227.374 166.586 227.405 166.606C227.437 166.626 227.459 166.656 227.47 166.691C227.481 166.727 227.478 166.765 227.464 166.798C226.233 168.699 224.882 170.82 223.452 173.065C219.69 178.974 215.798 185.085 213.803 187.62C213.492 188.025 213.195 188.406 212.915 188.777C210.793 191.583 209.391 193.437 202.232 195.616C194.28 198.039 180.277 202.351 180.136 202.394C180.121 202.399 180.104 202.402 180.088 202.402Z" fill="#240E54"/>
<path d="M182.683 201.564C182.642 201.569 182.601 201.557 182.568 201.532C182.535 201.506 182.514 201.469 182.509 201.428C182.504 201.387 182.516 201.345 182.541 201.313C182.567 201.28 182.605 201.259 182.646 201.254C182.902 201.189 208.393 194.768 213.369 193.445C217.467 192.36 218.319 191.614 220.375 189.824C220.82 189.436 221.323 188.998 221.929 188.497C224.655 186.24 231.299 180.791 238.331 175.022L243.218 171.015C243.233 170.998 243.251 170.985 243.272 170.976C243.292 170.967 243.314 170.962 243.337 170.963C243.359 170.963 243.381 170.969 243.402 170.979C243.422 170.988 243.44 171.002 243.454 171.02C243.468 171.037 243.478 171.057 243.484 171.079C243.49 171.101 243.49 171.123 243.486 171.145C243.482 171.167 243.474 171.188 243.461 171.207C243.448 171.225 243.431 171.24 243.412 171.252L238.526 175.259C231.493 181.026 224.85 186.475 222.125 188.733C221.525 189.23 221.023 189.663 220.58 190.053C218.548 191.825 217.628 192.633 213.45 193.741C208.477 195.064 182.98 201.493 182.724 201.552L182.683 201.564Z" fill="#240E54"/>
<path d="M158.944 177.656C150.565 176.24 143.425 174.599 137.547 173.18C136.497 172.926 135.457 172.665 134.451 172.413C128.554 170.934 122.454 169.404 108.299 167.691L108.325 167.474C122.494 169.188 128.6 170.72 134.504 172.202C135.51 172.453 136.55 172.715 137.599 172.968C143.473 174.385 150.608 176.025 158.982 177.44L158.944 177.656Z" fill="#240E54"/>
</g>
<path d="M203.72 131.445C216.336 118.86 216.336 98.4548 203.72 85.8694C191.103 73.284 170.647 73.284 158.031 85.8694C145.414 98.4548 145.414 118.86 158.031 131.445C170.647 144.03 191.103 144.03 203.72 131.445Z" fill="#FFBC00"/>
<path d="M193.974 118.006C190.916 117.115 187.657 114.994 187.456 111.495C187.41 110.683 187.549 109.821 188.022 109.139C188.558 108.364 189.447 107.945 190.32 107.663C191.408 107.309 194.175 106.478 194.509 108.247C194.649 108.979 194.072 109.675 193.576 110.137C193.007 110.658 192.386 111.119 191.721 111.511C190.394 112.304 188.93 112.84 187.403 113.089C185.863 113.342 184.14 113.371 182.682 112.752C181.934 112.442 181.261 111.92 180.904 111.176C180.593 110.537 180.539 109.781 180.593 109.084C180.634 108.365 180.841 107.664 181.196 107.037C181.571 106.416 182.211 105.917 182.809 105.517C183.658 104.951 184.721 104.51 185.762 104.686C186.088 104.734 186.395 104.865 186.654 105.066C187.141 105.471 187.144 106.164 187.082 106.744C186.926 108.235 185.994 109.55 184.937 110.562C182.886 112.517 180.104 113.662 177.294 113.92C175.908 114.048 174.511 113.951 173.157 113.633C171.711 113.289 169.724 112.703 169.386 111.036C169.304 110.653 169.318 110.256 169.427 109.88C169.536 109.504 169.736 109.16 170.01 108.88C170.284 108.6 170.623 108.391 170.997 108.273C171.371 108.155 171.769 108.13 172.154 108.202C173.954 108.525 174.47 110.562 174.019 112.101C173.542 113.726 172.31 115.138 171.102 116.287C169.798 117.5 168.351 118.551 166.793 119.415C166.036 119.848 165.262 120.246 164.479 120.626C164.412 120.659 164.468 120.76 164.535 120.727C166.379 119.831 168.179 118.822 169.8 117.56C171.334 116.363 172.818 114.892 173.718 113.148C174.419 111.787 174.641 109.946 173.469 108.76C172.496 107.776 170.711 107.818 169.808 108.878C168.875 109.981 169.093 111.659 170.209 112.538C170.894 113.076 171.774 113.374 172.602 113.61C173.354 113.823 174.124 113.966 174.902 114.036C178.12 114.331 181.336 113.443 183.944 111.54C185.175 110.627 186.301 109.455 186.872 108.013C187.243 107.083 187.581 105.497 186.55 104.855C185.798 104.39 184.799 104.493 184.003 104.778C182.736 105.231 181.373 106.209 180.847 107.477C180.332 108.717 180.225 110.422 181.002 111.588C181.945 112.983 183.821 113.348 185.397 113.362C188.043 113.373 190.622 112.531 192.75 110.962C193.328 110.532 193.921 110.061 194.304 109.447C194.639 108.922 194.778 108.254 194.397 107.711C194.016 107.168 193.346 107.061 192.75 107.061C191.89 107.061 191.021 107.308 190.212 107.575C189.402 107.841 188.547 108.249 188.003 108.957C187.041 110.208 187.203 112.03 187.789 113.405C188.485 115.036 189.828 116.281 191.376 117.106C192.191 117.53 193.047 117.87 193.932 118.119C193.94 118.121 193.947 118.122 193.955 118.121C193.962 118.12 193.97 118.118 193.976 118.114C193.983 118.11 193.989 118.105 193.993 118.099C193.998 118.093 194.002 118.086 194.004 118.079C194.006 118.072 194.006 118.064 194.005 118.057C194.004 118.049 194.002 118.042 193.998 118.035C193.995 118.028 193.99 118.023 193.984 118.018C193.978 118.013 193.971 118.01 193.963 118.008L193.974 118.006Z" fill="#240E54" stroke="#240E54"/>
<path d="M185.924 137.096H175.83C171.017 137.096 167.116 140.987 167.116 145.788V155.857C167.116 160.658 171.017 164.549 175.83 164.549H185.924C190.736 164.549 194.638 160.658 194.638 155.857V145.788C194.638 140.987 190.736 137.096 185.924 137.096Z" fill="#240E54"/>
<path d="M167.116 147.186C167.116 137.67 164.629 136.723 162.679 135.289H181.634V147.195L167.116 147.186Z" fill="#FFBC00"/>
<path d="M194.689 147.186C194.689 137.67 197.176 136.723 199.124 135.289H180.18V147.195L194.689 147.186Z" fill="#FFBC00"/>
<path d="M174.047 147.196H173.864C173.864 140.964 173.045 132.185 169.138 125.746C166.807 121.908 164.458 120.717 164.435 120.705L164.516 120.55C164.539 120.562 166.936 121.776 169.292 125.666C171.463 129.227 174.047 135.865 174.047 147.196Z" fill="#240E54" stroke="#240E54"/>
<path d="M188.14 147.195H187.959C187.959 140.374 188.475 130.762 190.926 123.617C192.398 119.332 193.851 117.993 193.913 117.938L194.035 118.072C194.019 118.086 192.544 119.448 191.082 123.704C188.651 130.82 188.14 140.406 188.14 147.195Z" fill="#240E54" stroke="#240E54"/>
<path d="M180.876 170.017C182.204 170.017 183.477 169.491 184.416 168.554C185.354 167.618 185.882 166.348 185.882 165.023H175.87C175.87 166.348 176.398 167.618 177.336 168.554C178.275 169.491 179.548 170.017 180.876 170.017Z" fill="#240E54"/>
<path d="M194.636 150.08H180.55L194.636 149.044V150.08Z" fill="white"/>
<path d="M194.636 152.962H180.55L194.636 151.927V152.962Z" fill="white"/>
<path d="M194.636 155.846H180.55L194.636 154.811V155.846Z" fill="white"/>
<path d="M271.733 216.616L289.728 213.185L293.619 227.652L297.414 216.775L314.213 221.575L306.497 210.762L323 204.207L301.66 202.414L306.868 191.855L297.587 199.239L286.142 185.088L287.031 201.268L276.196 200.025L284.147 207.747L271.733 216.616Z" fill="#495BF5"/>
<path d="M246.189 101.583L245.689 92.6426L245.188 101.583C244.878 107.048 240.358 111.632 234.914 111.981L226.337 112.532L234.914 113.083C240.353 113.433 244.882 118.017 245.188 123.48L245.689 132.421L246.189 123.48C246.5 118.017 251.019 113.433 256.463 113.083L265.041 112.532L256.463 111.981C251.019 111.632 246.495 107.048 246.189 101.583Z" fill="#495BF5"/>
<path d="M81.069 69.2029L82.9215 64.5986L80.567 68.9642C79.1279 71.6337 75.7804 72.8739 72.9674 71.7748L68.5366 70.0432L72.7094 72.3267C75.3514 73.7777 76.5481 77.1325 75.4151 79.9478L73.5626 84.549L75.9171 80.1819C77.3562 77.5123 80.7038 76.2721 83.5167 77.3728L87.9491 79.1045L83.7763 76.8194C81.1281 75.373 79.9376 72.0135 81.069 69.2029Z" fill="#F74945"/>
<path d="M257.132 267.373C251.501 267.373 244.388 265.586 235.969 262.02L236.142 261.615C251.414 268.089 262.333 268.672 267.717 263.302C281.929 249.125 253.329 197.529 203.962 148.285C180.021 124.403 154.82 104.64 133 92.6305C122.402 86.8015 113.185 83.1259 105.604 81.7043C97.8068 80.2424 92.1048 81.2392 88.664 84.6808C84.2208 89.1192 83.8555 97.5046 87.6103 108.936C91.2562 120.098 98.7269 133.917 109.212 148.917L108.85 149.169C98.3337 134.133 90.8506 120.269 87.1829 109.076C85.318 103.383 84.4492 98.413 84.6015 94.3064C84.7569 90.0416 86.0204 86.7023 88.3469 84.3847C95.3405 77.4007 111.283 80.199 133.213 92.26C155.068 104.281 180.302 124.07 204.275 147.98C228.247 171.889 248.082 197.064 260.133 218.865C272.225 240.741 275.029 256.634 268.028 263.62C265.513 266.133 261.842 267.373 257.132 267.373Z" fill="#240E54" stroke="#240E54" stroke-width="3"/>
<path d="M99.2663 267.382C94.5588 267.382 90.874 266.141 88.3502 263.618C84.5022 259.778 83.593 253.305 85.6522 244.379C87.6275 235.807 92.2152 225.441 99.288 213.567L99.6657 213.791C92.6178 225.625 88.0471 235.95 86.0811 244.486C84.0608 253.254 84.928 259.59 88.661 263.314C91.1305 265.777 94.736 266.951 99.2585 266.952C120.777 266.952 163.175 240.409 203.965 199.719C253.332 150.475 281.932 98.8789 267.72 84.7002C265.689 82.6756 262.834 81.4865 259.231 81.1656C255.707 80.8555 251.451 81.3671 246.584 82.6957C237.023 85.3048 225.035 91.1059 211.915 99.4742L211.677 99.1037C224.834 90.7121 236.865 84.8924 246.467 82.2709C251.386 80.9284 255.693 80.4106 259.272 80.7284C262.978 81.0586 265.927 82.2911 268.031 84.3901C275.024 91.3741 272.227 107.269 260.136 129.145C248.085 150.946 228.247 176.118 204.278 200.029C180.309 223.94 155.068 243.722 133.213 255.747C119.188 263.456 107.615 267.382 99.2663 267.382Z" fill="#240E54" stroke="#240E54" stroke-width="3"/>
<path d="M288.713 130.882C287.566 132.026 286.922 133.578 286.922 135.196C286.922 136.814 287.566 138.366 288.713 139.51L297.362 130.882C296.794 130.315 296.12 129.866 295.378 129.559C294.636 129.253 293.84 129.095 293.037 129.095C292.234 129.095 291.439 129.253 290.697 129.559C289.955 129.866 289.281 130.315 288.713 130.882Z" fill="#495BF5"/>
<path d="M297.366 130.882L288.713 139.511C289.281 140.077 289.955 140.526 290.697 140.833C291.439 141.139 292.235 141.297 293.038 141.297C293.841 141.297 294.636 141.139 295.378 140.833C296.12 140.526 296.794 140.076 297.362 139.51C297.93 138.943 298.381 138.271 298.688 137.53C298.995 136.79 299.153 135.997 299.153 135.196C299.153 134.394 298.995 133.601 298.688 132.861C298.38 132.121 297.93 131.448 297.362 130.882H297.366Z" fill="#F74945"/>
<path d="M312.032 115.92L273.683 154.161L273.994 154.471L312.343 116.23L312.032 115.92Z" fill="#240E54" stroke="white" stroke-width="3"/>
<path d="M249.115 223.548L232.276 229.013L232.412 229.43L249.251 223.966L249.115 223.548Z" fill="#240E54"/>
</svg>
