<svg width="353" height="373" viewBox="0 0 353 373" fill="none" xmlns="http://www.w3.org/2000/svg">
<rect width="436" height="373" rx="45" fill="#FFB2C6"/>
<path d="M363.231 156.707L272.309 172.985L262.708 102L222.921 155.489L156.57 119.182L177.334 180.778L104 200.667L211.402 226.461L184.408 279.232L231.706 242.629L288.354 314.335L285.039 232.999L339.55 239.825L300.044 200.611L363.231 156.707Z" fill="white"/>
<g clip-path="url(#clip0_702_1221)">
<path d="M137.2 182.776C134.26 182.13 133.281 181.175 132.985 178.797C132.848 177.691 133.042 177.152 134.362 177.307C139.283 177.899 139.247 177.855 140.298 172.885C140.696 171.089 140.9 169.255 140.907 167.416C140.907 164.126 139.397 161.8 136.361 160.54C135.479 160.178 134.808 159.921 135.037 158.688C136.498 150.468 138.819 142.536 142.434 134.988C145.32 128.962 150.315 126.19 156.661 125.217C163.674 124.138 169.737 127.251 175.955 129.541C181.112 131.468 186.106 133.807 190.889 136.536C191.147 136.677 191.412 136.804 191.684 136.916C192.535 137.31 193.577 138.039 194.155 136.814C194.733 135.59 193.484 135.161 192.708 134.741C190.122 133.348 187.518 131.986 184.861 130.735C180.17 128.458 175.326 126.512 170.364 124.912C169.031 124.498 167.843 123.713 166.94 122.648C164.976 120.437 162.871 118.394 160.823 116.281C155.686 110.975 149.283 109.649 142.226 110.29C132.959 111.143 124.132 113.991 115.174 116.29C114.176 116.542 113.179 116.807 112.168 116.988C109.613 117.431 107.495 116.148 106.696 113.668C106.157 111.932 106.216 110.065 106.864 108.367C107.513 106.669 108.713 105.239 110.271 104.308C110.271 106.222 110.315 107.946 110.271 109.666C110.222 111.263 110.915 111.961 112.508 111.926C115.65 111.864 118.643 111.276 121.264 109.423C124.353 107.212 125.174 104.489 123.713 100.938C123.307 99.9568 122.932 99.1963 124.384 98.8382C134.3 96.3931 144.203 93.9745 154.508 93.7534C162.332 93.581 168.956 96.6495 175.249 100.792C184.292 106.761 191.821 114.393 198.771 122.639C199.46 123.453 200.135 125.155 201.419 124.151C202.703 123.148 201.335 122.047 200.629 121.202C192.456 111.475 183.458 102.672 172.385 96.1366C163.881 91.105 154.733 90.623 145.306 91.7151C137.306 92.6481 129.777 95.469 122.071 97.578C121.189 97.8256 120.094 98.5685 119.375 97.8699C118.554 97.0696 118.987 95.7829 119.163 94.7085C119.25 94.1986 119.422 93.7069 119.671 93.2538C119.971 92.7055 120.112 91.8124 120.906 91.892C121.701 91.9716 121.445 92.8117 121.573 93.3422C122.08 95.438 122.967 95.9951 125.081 95.4646C129.649 94.3194 132.354 90.7822 132.323 85.892C132.292 85.6018 132.369 85.3102 132.541 85.074C132.712 84.8379 132.965 84.674 133.25 84.6142C144.724 80.6348 156.436 78.4241 168.493 81.2936C176.07 83.102 182.174 87.8905 188.378 92.3474C195.713 97.609 201.106 104.471 205.651 112.125C205.897 112.569 206.193 112.983 206.534 113.358C206.909 113.747 207.416 113.969 207.911 113.571C208.661 112.974 208.454 112.288 208.021 111.616C206.19 108.773 204.491 105.824 202.478 103.127C200.545 100.554 199.318 97.7328 198.233 94.7262C195.678 87.696 191.172 81.9038 186.251 76.3637C183.705 73.5118 181.247 70.5671 179.795 66.9503C179.001 64.965 178.546 62.8604 180.117 61.1227C181.688 59.3851 183.992 58.8457 186.357 59.0093C186.843 59.0402 187.5 59.1242 187.681 59.6415C187.862 60.1589 187.262 60.5258 186.913 60.8398C185.957 61.7565 184.988 62.66 184.005 63.5501C182.933 64.514 182.822 65.5044 183.815 66.601C185.254 68.2842 187.024 69.6524 189.014 70.6201C192.024 71.9908 194.888 71.4602 196.957 68.8913C197.924 67.6887 198.321 67.8125 199.208 68.8648C207.571 78.7955 214.442 89.7254 218.816 101.893C224.76 118.434 234.261 132.344 247.059 144.185C254.232 150.803 262.505 156.114 271.504 159.877C273.881 160.866 276.185 162.024 278.397 163.343C284.694 167.172 286.283 173.226 285.356 179.99C284.279 187.847 280.436 193.816 272.369 196.142C267.58 197.526 262.792 197.513 258.136 195.488C248.741 191.402 238.825 189.36 228.714 188.338C221.406 187.6 214.433 189.501 207.655 192.119C199.323 195.337 191.644 199.808 184.071 204.472C182.624 205.357 181.865 205.467 181.159 203.672C180.404 201.915 179.549 200.202 178.599 198.543C178.206 197.805 177.716 197.097 176.701 197.592C175.686 198.088 176.048 198.897 176.419 199.653C177.399 201.634 178.383 203.606 179.34 205.591C180.457 207.895 178.127 207.762 177.173 208.531C176 209.482 175.576 208.58 175.179 207.563C174.186 205.034 173.122 202.531 172.09 200.02C171.745 199.184 171.348 198.203 170.241 198.609C168.917 199.091 169.477 200.086 169.852 201.001C170.92 203.579 171.904 206.197 173.012 208.757C173.625 210.176 173.211 210.795 171.759 211.038C165.554 212.073 160.245 209.637 155.051 206.745C154.252 206.303 154.446 205.693 154.812 205.065C156.639 201.943 155.841 199.096 153.784 196.487C151.432 193.498 148.232 191.469 145.223 189.245C144.34 188.581 143.554 189.001 142.941 189.788C142.173 190.774 141.374 191.743 140.677 192.773C139.658 194.272 138.947 193.856 138.471 192.441C138.219 191.523 138.023 190.589 137.884 189.647C138.846 189.143 139.803 188.63 140.77 188.13C142.266 187.357 143.612 187.038 145.183 188.263C146.983 189.656 149.265 189.47 151.335 188.966C151.846 188.808 152.389 188.784 152.912 188.896C153.435 189.009 153.921 189.253 154.322 189.607C159.473 193.556 165.188 194.997 171.666 193.914C183.475 191.942 191.997 179.791 189.61 168.035L189.385 166.341L189.182 165.784C189.305 162.247 187.659 159.364 185.841 156.468C180.951 148.664 173.974 144.234 164.87 143.372C161.648 143.066 158.25 143.429 155.867 145.985C152.888 149.168 151.379 153.134 150.81 157.45C147.46 161.8 145.479 166.655 145.514 172.217C145.534 172.614 145.443 173.008 145.251 173.355C145.059 173.702 144.774 173.988 144.428 174.181C142.734 175.33 141.277 176.922 141.096 178.889C140.889 181.551 139.261 182.25 137.2 182.776Z" fill="#FE413B"/>
<path d="M113.907 216.092C116.93 224.842 119.922 233.605 123.011 242.333C123.426 243.509 123.453 244.31 122.632 245.318C114.088 256.058 103.108 262.013 89.3262 262.628C87.3889 262.716 86.3562 262.097 85.5927 260.143C82.8566 253.166 79.8557 246.286 76.9695 239.362C70.5441 224.111 64.1009 208.871 57.6402 193.644C57.04 192.229 57.3842 191.725 58.6816 191.234C71.9004 186.223 85.1029 181.19 98.2892 176.134C99.5249 175.657 99.953 175.984 100.35 177.151C102.283 182.846 104.291 188.515 106.281 194.187C106.476 194.74 106.723 195.271 106.965 195.81C105.05 197.057 102.914 197.831 100.787 198.649C99.3087 199.228 98.9291 199.913 99.5999 201.434C101.868 206.605 104.066 211.803 106.193 217.029C106.771 218.448 107.517 218.519 108.748 217.997C110.452 217.307 112.19 216.724 113.907 216.092ZM103.638 219.231C103.563 215.092 101.965 211.582 98.6202 208.986C98.0849 208.619 97.6498 208.122 97.3546 207.543C97.0594 206.964 96.9134 206.32 96.93 205.67C96.7976 200.745 96.4887 195.819 96.2636 190.893C96.2283 190.164 96.3563 189.249 95.4737 189.019C94.5911 188.789 94.3219 189.748 93.9644 190.345C92.4904 192.804 90.9988 195.257 89.6087 197.764C88.8982 199.042 88.2847 199.091 87.3227 198.03C85.7693 196.363 84.1144 194.789 82.4992 193.166C82.0887 192.759 81.7004 192.215 81.0075 192.49C80.3147 192.764 80.425 193.431 80.3764 194.006C80.1426 196.721 79.8336 199.427 79.7101 202.146C79.6351 203.756 78.9819 204.03 77.6139 203.539C75.472 202.773 73.3214 202.036 71.1619 201.328C70.4955 201.107 69.6835 200.652 69.1451 201.408C68.6729 202.067 69.2996 202.637 69.6526 203.176C71.8592 206.559 74.0657 209.959 76.2987 213.324C76.6803 213.848 76.9498 214.445 77.0903 215.078C77.2308 215.711 77.2392 216.366 77.1152 217.002C76.109 223.193 78.9643 228.772 84.5645 231.359C86.3297 232.177 86.8284 233.296 87.0579 235.042C87.764 240.436 88.6466 245.808 89.4277 251.194C89.644 252.675 90.0588 253.299 91.7049 252.489C99.3528 248.749 107.045 245.088 114.732 241.436C116.18 240.75 116.692 240.109 115.377 238.703C112.045 235.166 108.867 231.496 105.496 228.012C103.664 226.115 102.124 224.347 103.47 221.495C103.766 220.898 103.594 220.062 103.638 219.231ZM79.9925 191.035C81.0031 190.748 81.7578 190.151 81.6254 189.032C81.6099 188.809 81.5474 188.591 81.4421 188.394C81.3368 188.196 81.191 188.024 81.0143 187.887C80.8376 187.75 80.6339 187.652 80.4168 187.599C80.1996 187.547 79.9738 187.541 79.7542 187.582C79.5311 187.582 79.3108 187.631 79.1088 187.726C78.9068 187.821 78.728 187.959 78.5849 188.131C78.4419 188.302 78.3381 188.503 78.2809 188.719C78.2237 188.935 78.2144 189.161 78.2537 189.381C78.3376 190.434 78.9951 190.911 79.9969 191.035H79.9925ZM96.0959 187.44C97.0624 187.224 97.7641 186.79 97.7376 185.672C97.7111 184.553 97.1153 183.961 96.1312 183.956C95.8909 183.935 95.6491 183.969 95.4235 184.055C95.1979 184.14 94.9944 184.275 94.8279 184.45C94.6614 184.625 94.5363 184.835 94.4617 185.065C94.3871 185.295 94.3649 185.538 94.3969 185.778C94.4366 186.843 95.1559 187.303 96.1003 187.44H96.0959ZM66.4002 196.61C65.4072 196.677 64.6791 197.185 64.5776 198.158C64.4628 199.277 65.1601 199.927 66.2722 199.988C66.4924 200.017 66.7161 199.996 66.9274 199.928C67.1387 199.86 67.3323 199.745 67.4943 199.593C67.6562 199.441 67.7826 199.255 67.8643 199.048C67.946 198.841 67.981 198.619 67.9668 198.397C68.0065 197.389 67.3975 196.805 66.4046 196.61H66.4002Z" fill="#495BF5"/>
<path d="M113.907 216.092C112.19 216.724 110.452 217.308 108.77 218.015C107.53 218.537 106.793 218.457 106.215 217.047C104.088 211.82 101.89 206.622 99.622 201.452C98.9512 199.931 99.3307 199.241 100.809 198.666C102.914 197.848 105.05 197.075 106.987 195.828C107.486 195.784 107.98 195.739 108.311 195.288C110.959 194.616 113.347 193.294 115.814 192.215C116.89 191.747 118.298 191.72 118.903 190.403C120.99 190.465 122.605 189.178 124.393 188.426C128.691 186.613 132.941 184.672 137.217 182.78C139.283 182.249 140.911 181.551 141.154 178.889C141.335 176.921 142.791 175.352 144.486 174.18C144.832 173.987 145.117 173.701 145.309 173.354C145.5 173.007 145.591 172.613 145.571 172.217C145.518 166.655 147.5 161.8 150.867 157.449C151.396 156.941 151.922 156.432 152.456 155.928C156.329 152.25 161.392 150.087 166.723 149.833C172.054 149.579 177.298 151.251 181.503 154.544C185.263 157.485 187.544 161.429 189.239 165.784C189.305 165.969 189.376 166.155 189.442 166.336L189.667 168.034C192.054 179.791 183.533 191.941 171.723 193.913C165.245 194.997 159.53 193.555 154.38 189.607C153.978 189.253 153.492 189.008 152.969 188.896C152.446 188.784 151.903 188.808 151.392 188.966C149.322 189.47 147.041 189.655 145.24 188.263C143.656 187.038 142.31 187.356 140.827 188.13C139.861 188.63 138.903 189.143 137.941 189.647C133.259 191.627 128.545 193.551 124.022 195.894C122.517 196.084 122.063 196.641 122.773 198.215C124.269 201.527 125.487 204.958 126.944 208.288C127.508 209.57 127.35 210.41 126.136 211.056C125.584 211.095 125.019 211.1 124.662 211.639C122.65 212.227 120.593 212.731 118.925 214.155C118.316 214 117.844 214.323 117.367 214.619C116.639 214.783 115.902 214.92 115.381 215.534C114.838 215.532 114.313 215.731 113.907 216.092ZM182.818 172.686C182.778 163.555 176.026 156.848 167.637 156.914C159.336 156.985 152.57 163.847 152.632 171.974C152.632 173.782 153.7 174.547 155.015 174.954C156.45 175.396 161.158 172.341 161.661 170.882C162.937 167.207 166.401 165.408 169.901 166.602C172.924 167.636 174.72 171.24 173.749 174.317C172.663 177.748 169.256 179.557 165.66 178.367C165.151 178.192 164.612 178.122 164.076 178.162C163.54 178.201 163.017 178.349 162.54 178.597C161.533 179.039 160.487 179.42 159.534 179.955C158.709 180.419 157.478 180.397 157.354 181.821C157.231 183.244 158.166 183.806 159.062 184.412C163.987 187.723 169.212 188.227 174.508 185.53C179.932 182.749 182.703 178.142 182.818 172.686Z" fill="#240E54"/>
<path d="M131.229 237.284C130.523 241.555 128.537 245.269 126.264 248.842C117.839 262.075 105.84 270.171 90.5178 273.023C73.6024 276.162 58.6949 271.781 46.5501 259.511C37.1722 250.036 33.6682 238.186 34.4052 224.988C34.5407 221.749 35.0879 218.542 36.0337 215.442C36.209 214.889 36.2674 214.305 36.2051 213.728C36.1427 213.151 35.9611 212.593 35.6718 212.09C34.3081 209.243 33.0504 206.342 31.6029 203.535C30.9277 202.23 31.3381 201.7 32.5208 201.253C36.4353 199.785 40.3541 198.331 44.2288 196.757C45.385 196.288 45.7954 196.712 46.2191 197.641C47.3444 200.117 48.4963 202.584 49.7055 205.02C50.3233 206.267 49.9923 207.479 49.7408 208.686C48.2352 215.981 48.0156 223.484 49.092 230.855C51.5678 248.249 65.0498 260.639 79.0261 264.193C94.4455 268.115 107.844 263.645 119.534 253.228C124.56 248.749 127.879 243.019 131.229 237.284Z" fill="#495BF5"/>
<path d="M29.2241 155.725C29.3344 149.141 30.1641 142.142 33.4563 135.708C40.8968 121.117 59.8334 116.917 73.364 126.742C81.8371 132.896 87.1152 141.505 91.5989 150.697C93.2299 154.066 94.6464 157.535 95.8399 161.083C96.2812 162.432 95.9105 162.945 94.7101 163.343C93.1788 163.851 91.6827 164.461 90.1779 165.041C88.8804 165.54 88.139 165.337 87.53 163.838C84.7145 156.87 81.2899 150.215 76.7444 144.189C73.9774 140.519 70.8441 137.207 66.8811 134.837C57.0796 128.979 45.3364 133.533 41.8544 144.485C39.8818 150.675 39.6743 157.06 40.1465 163.498C40.5908 169.365 41.4894 175.19 42.8341 180.918C43.1254 182.183 42.6973 182.687 41.6602 183.063C39.5243 183.836 37.3619 184.557 35.2701 185.441C34.0035 185.972 33.5313 185.53 33.2445 184.363C30.9982 175.126 29.3124 165.814 29.2241 155.725Z" fill="#495BF5"/>
<path d="M83.426 262.04C75.9413 260.753 69.6571 257.472 64.1319 252.609C53.7964 243.509 50.8926 231.682 51.4795 218.563C51.6474 214.887 52.1736 211.237 53.0506 207.664C53.3239 206.583 53.192 205.439 52.6799 204.45C51.4266 201.876 50.31 199.237 49.0082 196.685C48.4168 195.523 48.6286 194.917 49.8202 194.576C50.2394 194.453 50.6763 194.364 51.0912 194.223C55.5705 192.653 55.5969 192.64 57.4681 197.07C62.9462 210.057 68.4214 223.049 73.8937 236.046C77.2609 244.031 80.6589 252.007 84.0129 259.997C84.3659 260.837 85.2353 262.026 83.426 262.04ZM68.7745 238.787C68.7944 238.114 68.6793 237.444 68.436 236.816C68.1926 236.188 67.8261 235.616 67.358 235.133C66.8899 234.65 66.3297 234.266 65.7108 234.004C65.0918 233.741 64.4266 233.606 63.7546 233.606C63.0825 233.606 62.4173 233.741 61.7983 234.004C61.1794 234.266 60.6193 234.65 60.1511 235.133C59.683 235.616 59.3165 236.188 59.0731 236.816C58.8298 237.444 58.7147 238.114 58.7346 238.787C58.7734 240.095 59.3192 241.337 60.2564 242.248C61.1936 243.16 62.4484 243.669 63.7546 243.669C65.0607 243.669 66.3155 243.16 67.2527 242.248C68.1899 241.337 68.7357 240.095 68.7745 238.787Z" fill="#495BF5"/>
<path d="M109.044 169.25C109.194 170.625 108.113 170.78 107.243 171.112L69.2158 185.61C62.905 188.019 56.5766 190.372 50.3056 192.879C48.3639 193.657 47.4151 193.431 46.5236 191.358C44.3744 186.375 44.2597 186.45 49.3392 184.562C68.0301 177.614 86.7122 170.664 105.386 163.71C107.879 162.786 107.879 162.826 108.285 165.35C108.519 166.659 108.797 167.95 109.044 169.25Z" fill="#495BF5"/>
<path d="M152.923 223.728C156.895 223.427 160.117 224.223 163.369 224.577C174.671 225.801 185.951 227.199 197.24 228.534C199.689 228.821 199.791 229.02 198.44 230.926C195.122 235.595 191.768 240.229 188.502 244.946C187.553 246.317 186.843 246.512 185.364 245.504C175.285 238.663 165.135 231.938 155.006 225.165C154.472 224.82 153.947 224.44 152.923 223.728Z" fill="#325BF6"/>
<path d="M143.824 227.809C145.821 231.284 147.82 234.759 149.821 238.234C153.012 243.761 156.171 249.288 159.419 254.797C160.302 256.279 160.192 256.889 158.36 257.225C153.828 258.065 149.327 259.077 144.817 260.037C143.894 260.236 143.223 260.245 143.223 259.002C143.223 248.662 143.223 238.321 143.223 227.981L143.824 227.809Z" fill="#325BF6"/>
<path d="M115.346 215.535C115.867 214.92 116.604 214.783 117.332 214.62C117.398 217.043 118.682 218.599 120.902 219.32C122.892 219.974 124.657 219.364 126.065 217.865C127.83 215.995 127.791 213.939 126.065 211.056C127.279 210.41 127.438 209.57 126.873 208.288C125.417 204.959 124.199 201.528 122.702 198.216C121.992 196.642 122.447 196.085 123.951 195.895C128.646 202.332 131.643 209.852 132.667 217.759C133.378 222.932 131.498 227.76 129.746 232.513C128.49 236.01 126.75 239.313 124.578 242.325C121.387 233.04 118.369 224.285 115.346 215.535Z" fill="#495BF5"/>
<path d="M119.618 159.363C120.336 151.994 121.056 144.615 121.78 137.225C121.952 135.456 122.147 133.719 122.305 131.959C122.376 131.132 122.42 130.305 123.382 129.996C128.113 128.484 132.844 126.98 138.29 125.247L120.156 159.611L119.618 159.363Z" fill="#325BF6"/>
<path d="M314.306 223.298C311.614 222.445 309.368 221.088 307.002 219.973C303.41 218.298 299.875 216.502 296.27 214.853C294.844 214.203 294.43 213.708 295.736 212.413C299.443 208.738 303.048 204.962 306.676 201.204C307.457 200.395 308.101 199.78 308.556 201.438C310.44 208.385 312.347 215.322 314.231 222.268C314.285 222.609 314.31 222.953 314.306 223.298Z" fill="#325BF6"/>
<path d="M261.018 249.342C261.954 244.991 262.889 240.64 263.825 236.289C264.522 233.066 265.268 229.856 265.934 226.628C266.23 225.196 266.684 224.86 268.105 225.656C271.221 227.424 274.438 229.029 277.647 230.639C278.719 231.178 278.887 231.678 278.017 232.571C272.504 238.233 267.002 243.912 261.512 249.607L261.018 249.342Z" fill="#325BF6"/>
<path d="M328.004 154.823C328.004 155.756 327.329 155.946 326.888 156.273C320.574 160.943 314.249 165.595 307.912 170.232C307.47 170.559 307.055 171.254 306.429 170.975C305.802 170.696 306.093 169.932 306.089 169.388C306.062 165.408 306.089 161.429 306.054 157.472C306.054 156.26 306.402 155.831 307.669 155.783C314.412 155.517 321.155 155.155 328.004 154.823Z" fill="#325BF6"/>
<path d="M118.881 190.403C118.285 191.729 116.877 191.729 115.792 192.216C113.316 193.295 110.937 194.617 108.289 195.289C106.158 189.169 104.04 183.046 101.877 176.94C101.378 175.529 101.687 174.777 103.201 174.344C104.803 173.828 106.377 173.226 107.914 172.54C108.96 172.098 109.503 172.279 109.68 173.544C110.011 176.015 110.597 178.452 110.875 180.923C111.118 183.019 111.829 184.589 113.718 185.787C115.606 186.985 117.645 188.316 118.881 190.403Z" fill="#495BF5"/>
<path d="M244.959 217.798C238.03 217.798 231.45 217.798 224.866 217.798C223.793 217.798 223.754 217.166 224.398 216.556C228.339 212.833 232.315 209.145 236.278 205.449C236.803 204.958 237.324 204.887 237.73 205.564C240.148 209.637 242.558 213.715 244.959 217.798Z" fill="#325BF6"/>
<path d="M40.7513 187.807C41.3647 187.737 41.6339 188.112 41.9075 188.599C45.5837 194.652 45.5572 194.723 38.9684 197.132C36.4882 198.039 34.0037 198.936 31.5676 199.949C30.4908 200.391 29.9701 200.135 29.5288 199.135C28.8139 197.526 28.0239 195.947 27.2472 194.369C26.8059 193.485 26.9162 192.848 27.9401 192.472C32.0751 190.973 36.197 189.443 40.3276 187.927C40.4645 187.878 40.6101 187.847 40.7513 187.807Z" fill="#495BF5"/>
<path d="M101.718 150.255C100.809 145.365 99.9 140.473 98.9909 135.58C98.8364 134.744 99.1189 134.196 100.006 133.909C103.148 132.896 106.272 131.831 109.401 130.783C109.746 130.668 110.121 130.469 110.443 130.738C110.765 131.008 110.505 131.424 110.372 131.729C107.686 137.919 104.99 144.109 102.283 150.299L101.718 150.255Z" fill="#325BF6"/>
<path d="M279.279 122.859C280.78 127.696 282.157 132.237 283.613 136.756C284.054 138.083 283.79 138.573 282.355 138.728C280.1 138.976 277.872 139.458 275.63 139.816C274.747 139.957 273.9 139.971 274.279 138.64C275.709 133.629 277.146 128.628 278.591 123.638C278.662 123.452 278.887 123.315 279.279 122.859Z" fill="#325BF6"/>
<path d="M153.396 201.39C153.356 202.655 153.131 203.729 152.204 204.295C151.277 204.861 150.567 203.937 149.918 203.411C147.487 201.527 145.134 199.551 142.707 197.663C141.405 196.655 141.277 195.779 142.372 194.426C144.578 191.712 144.499 191.632 147.226 193.675C148.906 194.858 150.432 196.246 151.767 197.809C152.654 198.928 153.352 200.113 153.396 201.39Z" fill="#FE413B"/>
<path d="M112.663 105.607C112.663 102.158 112.663 102.158 115.977 101.212C116.612 101.031 117.244 100.854 117.866 100.637C119.053 100.217 120.214 99.7177 121.087 101.217C121.961 102.715 122.539 104.166 121.432 105.718C119.56 108.34 116.749 109.038 113.762 109.281C113.616 109.312 113.466 109.308 113.322 109.268C113.179 109.227 113.048 109.153 112.94 109.051C112.832 108.949 112.75 108.822 112.702 108.681C112.654 108.54 112.64 108.39 112.663 108.242V105.607Z" fill="#FE413B"/>
<path d="M138.603 167.955C138.267 169.874 137.853 171.961 137.557 174.065C137.31 175.79 136.105 175.184 135.205 175.069C134.181 174.932 132.8 174.985 132.998 173.3C133.395 170.099 133.85 166.903 134.265 163.701C134.428 162.446 135.112 162.53 135.973 162.994C137.879 164.02 138.475 165.753 138.603 167.955Z" fill="#FE413B"/>
<path d="M191.803 68.9C189.596 68.7143 187.963 67.2994 186.459 65.6546C186.366 65.5529 186.242 65.3628 186.278 65.2744C186.944 63.55 188.652 62.8028 189.808 61.5471C190.558 60.7379 191.273 61.2995 191.922 61.8079C192.663 62.396 193.409 62.9885 194.129 63.6208C195.038 64.4343 196.247 65.155 195.479 66.7158C194.764 68.1439 193.577 68.8647 191.803 68.9Z" fill="#FE413B"/>
<path d="M123.497 90.4631C123.434 90.3147 123.401 90.1552 123.4 89.9939C123.4 89.8326 123.432 89.6729 123.494 89.5241C123.556 89.3753 123.647 89.2405 123.762 89.1276C123.877 89.0148 124.013 88.9261 124.163 88.867C125.642 88.0844 127.138 87.3327 128.629 86.5722C129.794 85.9797 130.227 86.4174 130.152 87.6422C130.024 89.6628 126.661 92.8773 124.71 92.7181C123.113 92.5899 123.863 91.0998 123.497 90.4631Z" fill="#FE413B"/>
<path d="M124.609 211.639C126.215 214.292 126.021 216.387 124.071 217.519C121.643 218.925 119.154 217.307 118.89 214.155C120.54 212.731 122.614 212.227 124.609 211.639Z" fill="#495BF5"/>
<path d="M90.3457 207.51C98.4922 207.563 103.96 215.225 101.378 223.188C100.88 224.727 101.184 225.607 102.186 226.681C105.743 230.493 109.198 234.406 112.755 238.217C113.916 239.46 113.691 240.083 112.23 240.768C105.871 243.766 99.5381 246.861 93.1789 249.872C90.9105 250.947 90.7428 250.787 90.3677 248.232C89.5954 242.926 89.1762 237.62 87.839 232.403C87.7484 231.909 87.5232 231.45 87.1883 231.076C86.8534 230.702 86.4218 230.428 85.9414 230.285C80.7692 228.295 77.5212 222.547 78.5583 217.383C79.7586 211.427 84.4674 207.51 90.3457 207.51ZM83.2847 219.006C83.2847 222.543 85.4339 225.196 89.2512 226.186C90.3545 226.469 90.809 226.902 90.9855 228.039C91.7887 233.265 92.7508 238.465 93.5319 243.691C93.757 245.203 94.2468 245.398 95.5046 244.752C99.088 242.908 102.671 241.06 106.312 239.331C107.808 238.624 107.636 238.045 106.714 236.939C103.589 233.23 100.606 229.423 97.4772 225.7C96.4534 224.484 96.1842 223.56 97.0359 222.034C98.5011 219.412 97.87 216.238 95.84 214.076C93.6069 211.719 90.7737 211.091 87.8125 212.307C86.4542 212.825 85.2884 213.75 84.4741 214.955C83.6598 216.161 83.2367 217.59 83.2626 219.045L83.2847 219.006Z" fill="#495BF5"/>
<path d="M71.8636 203.606C74.4762 203.862 76.3297 204.751 78.245 205.374C80.6281 206.152 80.8929 205.976 81.0914 203.557C81.2547 201.284 81.4754 199.012 81.674 196.739C81.7137 196.297 81.5989 195.757 82.1153 195.589C82.6316 195.421 82.9229 195.833 83.2362 196.147C84.5381 197.451 85.8267 198.755 87.1374 200.046C88.8364 201.726 89.0527 201.687 90.3148 199.547C91.3607 197.778 92.3934 196.009 93.4481 194.241C93.6688 193.869 93.9115 193.357 94.4102 193.472C94.9089 193.586 94.8515 194.152 94.8912 194.572C95.0677 198.026 95.1957 201.483 95.4252 204.936C95.5311 206.524 94.7279 206.67 93.532 206.365C91.7557 205.881 89.8945 205.796 88.0818 206.117C86.2965 206.41 84.5908 207.069 83.072 208.054C81.5531 209.038 80.2538 210.327 79.2556 211.838C78.4171 213.085 77.9537 213.2 77.1461 211.883C75.5133 209.216 73.7966 206.625 71.8636 203.606Z" fill="#495BF5"/>
<path d="M67.1769 238.871C67.1406 239.778 66.7461 240.634 66.0803 241.25C65.4145 241.865 64.5318 242.191 63.6265 242.154C62.7212 242.118 61.8674 241.723 61.2529 241.056C60.6383 240.389 60.3135 239.504 60.3498 238.597C60.3861 237.69 60.7805 236.835 61.4463 236.219C62.1121 235.603 62.9948 235.278 63.9001 235.314C64.8055 235.351 65.6593 235.746 66.2738 236.413C66.8883 237.08 67.2131 237.964 67.1769 238.871Z" fill="#495BF5"/>
<path d="M83.2627 219.045C83.2487 217.603 83.6749 216.192 84.4842 214.999C85.2934 213.807 86.447 212.89 87.7905 212.373C90.7517 211.162 93.5849 211.79 95.8179 214.142C97.848 216.286 98.4658 219.448 97.0139 222.1C96.1622 223.626 96.4314 224.55 97.4552 225.766C100.584 229.467 103.567 233.282 106.692 237.005C107.623 238.111 107.786 238.69 106.29 239.397C102.649 241.126 99.066 242.974 95.4825 244.818C94.2248 245.464 93.7173 245.26 93.5099 243.757C92.7332 238.531 91.7446 233.331 90.9635 228.105C90.787 226.969 90.3325 226.535 89.2292 226.252C85.4118 225.24 83.2759 222.574 83.2627 219.045Z" fill="#240E54"/>
</g>
<defs>
<clipPath id="clip0_702_1221">
<rect width="301" height="215" fill="white" transform="translate(27 59)"/>
</clipPath>
</defs>
</svg>
