<svg width="203" height="125" viewBox="0 0 203 125" fill="none" xmlns="http://www.w3.org/2000/svg">
<path d="M166.437 11.4803C175.101 16.5575 182.743 24.2362 191.883 28.5641C192.056 28.6415 192.209 28.7576 192.33 28.9035C192.452 29.0494 192.538 29.2212 192.583 29.4057C192.627 29.5902 192.629 29.7825 192.588 29.9678C192.546 30.1531 192.463 30.3264 192.344 30.4744C189.851 33.4745 186.105 35.7601 180.989 34.3468C174.558 32.5698 167.682 24.8303 161.625 21.9674C155.677 19.1538 151.218 22.9808 145.483 19.0929C143.374 18.0653 149.879 11.4168 151.2 10.1627C155.855 9.59586 161.545 9.21924 165.871 11.2706C165.815 11.3107 165.759 11.3599 166.437 11.4803Z" fill="#3D5CFF"/>
<path d="M133.517 22.1348C150.005 23.4925 153.191 31.8209 161.174 40.1713C166.001 45.2188 172.197 44.2908 175.741 40.9944C176.016 40.7375 176.182 40.3857 176.206 40.0105C176.23 39.6354 176.11 39.2652 175.871 38.9754C173.187 35.7579 168.487 31.9865 165.634 28.8739C156.25 17.5468 151.539 11.7214 137.093 18.7983C136.174 19.1581 135.474 19.8233 134.616 20.3061C133.693 20.5481 132.389 21.0658 133.517 22.1348Z" fill="#3D5CFF"/>
<path d="M145.564 30.1727C148.869 37.9135 145.282 47.826 142.429 57.6104C142.386 57.7555 142.315 57.8904 142.218 58.0071C142.122 58.1239 142.004 58.2202 141.87 58.2903C141.736 58.3604 141.589 58.4029 141.439 58.4153C141.288 58.4277 141.136 58.4097 140.993 58.3624C137.243 57.1795 135.313 55.8619 134.603 50.606C134.055 46.5435 135.364 41.0417 134.81 37.0166C133.525 27.6593 120.369 26.7145 120.3 25.4811C121.97 22.1161 130.57 20.8387 133.126 18.2334C134.37 18.478 143.789 26.0156 145.564 30.1727Z" fill="#3D5CFF"/>
<path d="M-11.8666 124.015C11.5913 92.5959 34.5902 62.7406 70.447 43.5147C82.7734 36.9051 93.1135 45.1105 101.153 46.5148C118.533 49.551 126.349 46.0061 139.229 48.8444C144.522 50.0092 153.623 54.4484 154.865 47.7158C155.659 43.4138 150.58 40.8823 140.085 38.1061C137.584 37.4448 122.255 33.1673 117.637 30.5815C115.873 29.594 116.84 28.7993 117.738 28.6272C125.675 27.1065 129.722 25.0875 135.638 21.9476C144.959 17.5472 154.927 16.6801 166.592 16.7371C174.61 16.7772 185.343 16.5326 193.322 15.0636C198.974 14.0282 203.85 9.59936 202.109 4.0238C202.003 3.68742 201.782 3.39948 201.484 3.21128C201.186 3.02309 200.831 2.94686 200.482 2.99618C182.326 5.65842 180.955 4.29041 165.815 3.98756C158.356 3.83613 131.676 0.961648 124.465 0.287352C106.937 -1.34985 95.9973 4.17005 60.7922 12.7418C49.3232 15.5334 38.3908 24.2384 34.9937 27.7134C25.3932 37.5302 1.72449 59.4946 -25 74.5491L-11.8666 124.015Z" fill="#F74945"/>
</svg>
