<svg width="186" height="69" viewBox="0 0 186 69" fill="none" xmlns="http://www.w3.org/2000/svg">
<path d="M175.8 47.7933V19.2674C175.8 18.0847 176.27 16.9503 177.106 16.1139C177.942 15.2776 179.076 14.8078 180.259 14.8078C180.845 14.8069 181.426 14.9216 181.968 15.1452C182.51 15.3689 183.002 15.6973 183.417 16.1115C183.832 16.5257 184.161 17.0175 184.386 17.559C184.61 18.1006 184.726 18.6811 184.726 19.2674V47.7933C184.726 48.9779 184.255 50.1142 183.418 50.9518C182.58 51.7895 181.444 52.2601 180.259 52.2601C179.673 52.2601 179.093 52.1444 178.551 51.9198C178.01 51.6953 177.518 51.3662 177.103 50.9513C176.689 50.5364 176.361 50.044 176.137 49.5021C175.914 48.9603 175.799 48.3795 175.8 47.7933ZM180.368 0.00104239C181.084 -0.00572177 181.795 0.130313 182.458 0.40113C183.122 0.671947 183.724 1.07212 184.231 1.57838C184.738 2.08463 185.139 2.68683 185.411 3.34974C185.682 4.01265 185.819 4.72299 185.814 5.4394C185.837 6.54719 185.528 7.6365 184.927 8.56734C184.326 9.49818 183.46 10.2279 182.441 10.6628C181.422 11.0978 180.296 11.218 179.208 11.0081C178.12 10.7981 177.12 10.2675 176.336 9.48453C175.551 8.70156 175.02 7.70202 174.808 6.61435C174.597 5.52668 174.715 4.40057 175.149 3.3809C175.583 2.36122 176.311 1.49451 177.241 0.892211C178.171 0.289915 179.26 -0.0204179 180.368 0.00104239Z" fill="#240E54"/>
<path d="M22.3669 32.0725C22.3669 35.7706 23.4546 38.5985 25.4124 40.7739C27.3702 42.7389 29.9877 43.8193 33.4755 43.8193C34.9699 43.8619 36.4569 43.5939 37.8423 43.0322C39.2278 42.4706 40.4815 41.6274 41.5244 40.5563C43.4822 38.381 44.3595 35.553 44.3595 31.8549C44.3595 28.5847 43.4822 25.9744 41.3141 23.799C40.3 22.7482 39.0812 21.9164 37.7329 21.3551C36.3847 20.7939 34.9358 20.5151 33.4755 20.536C31.9789 20.4923 30.4896 20.7596 29.1017 21.3213C27.7137 21.883 26.4574 22.7268 25.4124 23.799C23.3931 26.0758 22.3057 29.0298 22.3669 32.0725ZM13.0056 32.0725C12.9592 29.4522 13.4787 26.8528 14.5284 24.4515C15.5077 21.9305 16.9878 19.634 18.8791 17.7007C20.7119 15.7929 22.9391 14.3081 25.4051 13.35C27.8679 12.2285 30.5377 11.6333 33.2436 11.6025C35.8528 11.6663 38.4313 12.1816 40.8646 13.1254C43.2783 14.088 45.4914 15.4921 47.3906 17.2657C49.4807 19.1224 51.1198 21.4311 52.1835 24.0164C53.2765 26.4884 53.8681 29.1527 53.9239 31.8549C53.8999 34.6802 53.3846 37.4799 52.4011 40.1286C51.4414 42.5938 49.9568 44.8206 48.0504 46.6546C46.2864 48.6954 44.0443 50.2672 41.5244 51.23C38.8987 52.2945 36.0836 52.8127 33.2509 52.7528C30.5591 52.8134 27.8857 52.294 25.4124 51.23C22.9117 50.1116 20.6267 48.5631 18.6615 46.6546C16.9292 44.6417 15.5335 42.362 14.5284 39.9038C13.4592 37.4346 12.9396 34.7624 13.0056 32.0725Z" fill="#240E54"/>
<path d="M135.158 52.1733C136.342 52.1714 137.476 51.6999 138.312 50.8624C139.148 50.0249 139.618 48.8899 139.618 47.7065V29.3104C139.65 27.1837 140.509 25.1531 142.013 23.6492C143.517 22.1452 145.547 21.2861 147.674 21.2543C149.835 21.2405 151.914 22.078 153.463 23.5856C155.011 25.0932 155.904 27.1498 155.947 29.3104V47.7065C155.947 48.8911 156.418 50.0274 157.256 50.8651C158.093 51.7027 159.229 52.1733 160.414 52.1733C161 52.1733 161.581 52.0576 162.122 51.8331C162.664 51.6085 163.156 51.2794 163.57 50.8645C163.984 50.4497 164.313 49.9572 164.536 49.4154C164.76 48.8735 164.874 48.2927 164.874 47.7065V29.528C164.864 24.9693 163.049 20.6 159.825 17.3765C156.602 14.153 152.233 12.3377 147.674 12.3281C143.129 12.3809 138.784 14.2099 135.57 17.4241C132.356 20.6383 130.527 24.9827 130.474 29.528V47.7065C130.474 48.8899 130.944 50.0249 131.78 50.8624C132.616 51.6999 133.75 52.1714 134.934 52.1733H135.158Z" fill="#240E54"/>
<path d="M103.442 12.3281C101.057 12.3425 98.7005 12.8521 96.5224 13.8244C94.3443 14.7967 92.3919 16.2107 90.7888 17.9768C89.1816 16.1964 87.2183 14.7736 85.0261 13.8005C82.8338 12.8274 80.4615 12.3257 78.063 12.3281C73.5177 12.3809 69.1735 14.2099 65.9593 17.4241C62.7451 20.6383 60.916 24.9827 60.8633 29.528V47.7065C60.8633 48.8899 61.333 50.0249 62.1691 50.8624C63.0052 51.6999 64.1395 52.1714 65.3228 52.1733H65.5475C66.7309 52.1714 67.8652 51.6999 68.7013 50.8624C69.5374 50.0249 70.0071 48.8899 70.0071 47.7065V29.3104C70.0389 27.1838 70.8978 25.1532 72.4017 23.6492C73.9057 22.1452 75.9363 21.2862 78.063 21.2543C80.0696 21.247 82.0105 21.9699 83.5235 23.2881C85.0364 24.6062 86.0183 26.4298 86.2858 28.4186C86.2568 28.7811 86.2423 29.1509 86.2423 29.528V47.7065C86.2423 48.8899 86.712 50.0249 87.5481 50.8624C88.3842 51.6999 89.5185 52.1714 90.7018 52.1733H90.9265C92.1099 52.1714 93.2442 51.6999 94.0803 50.8624C94.9164 50.0249 95.3861 48.8899 95.3861 47.7065V29.3104C95.3861 27.145 96.2462 25.0682 97.7774 23.537C99.3086 22.0058 101.385 21.1456 103.551 21.1456C105.716 21.1456 107.793 22.0058 109.324 23.537C110.855 25.0682 111.716 27.145 111.716 29.3104V47.7065C111.691 48.3077 111.789 48.9076 112.002 49.4702C112.216 50.0329 112.54 50.5467 112.957 50.9807C113.374 51.4146 113.874 51.7599 114.428 51.9958C114.981 52.2316 115.577 52.3532 116.179 52.3532C116.78 52.3532 117.376 52.2316 117.93 51.9958C118.483 51.7599 118.983 51.4146 119.4 50.9807C119.817 50.5467 120.142 50.0329 120.355 49.4702C120.568 48.9076 120.666 48.3077 120.642 47.7065V29.528C120.632 24.9693 118.817 20.6 115.593 17.3765C112.37 14.153 108.001 12.3377 103.442 12.3281Z" fill="#240E54"/>
<path fill-rule="evenodd" clip-rule="evenodd" d="M28.3986 52.4901C37.0504 54.5012 46.3551 50.7529 51.0266 42.6617C56.7479 32.7521 53.3526 20.0807 43.443 14.3594C33.5333 8.63805 20.8619 12.0333 15.1406 21.943C10.4692 30.0341 11.8755 39.9664 17.943 46.4535L17.943 58.5267L28.3986 52.4901Z" fill="#F74945"/>
</svg>
