<svg width="188" height="123" viewBox="0 0 188 123" fill="none" xmlns="http://www.w3.org/2000/svg">
<path d="M64.4319 91.6962C64.4642 101.739 66.9018 111.173 66.7596 121.293C66.7526 121.483 66.7892 121.671 66.8666 121.845C66.944 122.018 67.0602 122.171 67.2061 122.293C67.352 122.414 67.5238 122.5 67.7082 122.545C67.8926 122.589 68.0848 122.591 68.27 122.549C72.0602 121.632 75.5233 120.917 76.8734 115.782C78.5713 109.325 75.3423 99.4862 75.9151 92.8054C76.4777 86.2397 92.1896 80.3976 91.715 73.4812C91.887 71.1399 81.0503 71.866 79.3007 72.3759C76.4699 76.1214 64.9465 86.3265 64.5405 91.0983C64.5974 91.0724 64.6634 91.0465 64.4319 91.6962Z" fill="#3D5CFF"/>
<path d="M102.861 79.5384C99.7352 84.2766 87.8692 88.2706 87.2536 91.3159C86.3484 95.7616 88.87 100.168 89.9434 107.687C90.9313 114.604 86.3743 118.908 81.5934 119.662C81.2223 119.719 80.8436 119.632 80.5344 119.419C80.2252 119.206 80.0087 118.883 79.9291 118.515C79.0588 114.417 77.6234 108.344 76.9355 104.174C73.8319 89.7913 72.1585 82.4866 86.6419 75.4848C87.4916 74.9827 91.9206 73.141 92.8297 72.7669C93.5888 72.1884 102.712 77.9918 102.861 79.5384Z" fill="#3D5CFF"/>
<path d="M111.692 49.5354C109.113 51.2451 106.907 53.4272 105.451 56.4687C102.685 62.0973 101.442 69.3592 100.944 75.8822C98.7949 75.93 96.7918 75.9106 95.5128 75.3787C94.4563 76.0763 88.7043 86.6877 88.6811 91.2085C88.6384 99.621 97.6724 101.791 106.613 106.68C106.747 106.752 106.893 106.797 107.044 106.812C107.195 106.827 107.348 106.811 107.492 106.766C107.637 106.72 107.771 106.646 107.887 106.548C108.002 106.449 108.097 106.329 108.165 106.193C109.976 102.699 110.251 99.8423 107.671 96.6417C106.428 95.0989 104.246 93.9018 103.177 93.2068C101.402 92.0523 101.589 91.8465 101.661 90.3698C102.002 83.412 113.946 83.9996 122.337 77.3628C126.167 74.3355 128.715 70.6004 131.874 67.1189C134.498 64.2302 140.473 61.0049 144.389 60.1223C136.794 51.4444 123.221 49.2132 111.692 49.5354Z" fill="#3D5CFF"/>
<path d="M229.79 36.9905C191.303 44.3676 175.802 53.0558 136.294 62.7574C125.079 65.5115 120.158 67.4658 115.638 72.3463C111.897 76.3856 107.149 78.8589 99.3446 82.1307C88.1355 86.8288 87.0958 83.5635 62.5774 97.4894C57.7113 100.254 51.4744 101.909 49.0264 97.0468C47.2638 93.5446 50.0066 91.721 58.676 86.4548C66.9936 81.4073 68.42 78.3011 72.7055 75.1949C73.8926 74.3356 73.3107 73.2821 71.7576 73.8308C67.8781 75.1962 67.6195 75.8524 59.9821 76.2329C49.6872 76.7506 43.2899 78.2429 36.5357 81.7981C31.4472 84.4824 20.8988 90.8577 13.3312 93.7724C7.96979 95.8431 1.58286 94.7301 0.0465867 89.0937C-0.144801 88.3948 0.274188 87.551 0.924649 87.2313C17.7487 78.9482 24.1835 73.1164 33.383 67.7583C39.832 64.005 62.9822 55.6352 70.0286 52.3194C85.8414 44.8775 116.161 43.5445 132.124 38.3093C162.812 28.2479 189.994 15.6758 223.567 0L229.79 36.9905Z" fill="#240E54"/>
<mask id="mask0_554_17726" style="mask-type:luminance" maskUnits="userSpaceOnUse" x="0" y="0" width="230" height="101">
<path d="M229.79 36.9905C191.303 44.3676 175.802 53.0558 136.294 62.7574C125.079 65.5115 120.158 67.4658 115.638 72.3463C111.897 76.3856 107.149 78.8589 99.3446 82.1307C88.1355 86.8288 87.0958 83.5635 62.5774 97.4894C57.7113 100.254 51.4744 101.909 49.0264 97.0468C47.2638 93.5446 50.0066 91.721 58.676 86.4548C66.9936 81.4073 68.42 78.3011 72.7055 75.1949C73.8926 74.3356 73.3107 73.2821 71.7576 73.8308C67.8781 75.1962 67.6195 75.8524 59.9821 76.2329C49.6872 76.7506 43.2899 78.2429 36.5357 81.7981C31.4472 84.4824 20.8988 90.8577 13.3312 93.7724C7.96979 95.8431 1.58286 94.7301 0.0465867 89.0937C-0.144801 88.3948 0.274188 87.551 0.924649 87.2313C17.7487 78.9482 24.1835 73.1164 33.383 67.7583C39.832 64.005 62.9822 55.6352 70.0286 52.3194C85.8414 44.8775 116.161 43.5445 132.124 38.3093C162.812 28.2479 189.994 15.6758 223.567 0L229.79 36.9905Z" fill="white"/>
</mask>
<g mask="url(#mask0_554_17726)">
<path d="M143.409 40.8033C145.842 40.8033 147.815 38.8291 147.815 36.3938C147.815 33.9586 145.842 31.9844 143.409 31.9844C140.976 31.9844 139.003 33.9586 139.003 36.3938C139.003 38.8291 140.976 40.8033 143.409 40.8033Z" fill="#F74945"/>
<path d="M172.465 40.5054C172.465 40.9244 172.589 41.334 172.822 41.6824C173.054 42.0309 173.385 42.3024 173.772 42.4628C174.159 42.6231 174.584 42.6651 174.995 42.5833C175.406 42.5016 175.783 42.2998 176.079 42.0035C176.375 41.7072 176.577 41.3297 176.658 40.9187C176.74 40.5077 176.698 40.0817 176.538 39.6946C176.378 39.3075 176.106 38.9766 175.758 38.7438C175.41 38.511 175.001 38.3867 174.582 38.3867C174.021 38.3867 173.482 38.6099 173.085 39.0073C172.688 39.4046 172.465 39.9435 172.465 40.5054Z" fill="#FFB2C6"/>
<path d="M128.102 53.6489C128.102 54.0683 128.226 54.4784 128.458 54.8272C128.691 55.176 129.022 55.4479 129.409 55.6086C129.796 55.7692 130.222 55.8113 130.633 55.7295C131.044 55.6478 131.422 55.4458 131.718 55.1493C132.014 54.8527 132.216 54.4748 132.298 54.0635C132.38 53.6521 132.337 53.2258 132.177 52.8384C132.016 52.4509 131.745 52.1199 131.396 51.887C131.048 51.6542 130.638 51.53 130.219 51.5303C129.658 51.5303 129.119 51.7535 128.722 52.1508C128.325 52.5481 128.102 53.087 128.102 53.6489Z" fill="#7BC8FF"/>
<path d="M113 66.9356C113 67.1453 113.062 67.3504 113.178 67.5249C113.295 67.6994 113.46 67.8354 113.653 67.9158C113.847 67.9963 114.06 68.0174 114.265 67.9767C114.471 67.9359 114.66 67.8351 114.808 67.6869C114.956 67.5387 115.057 67.3498 115.098 67.1442C115.139 66.9385 115.118 66.7254 115.038 66.5316C114.958 66.3378 114.822 66.1722 114.648 66.0557C114.474 65.9392 114.269 65.877 114.06 65.877C113.779 65.877 113.51 65.9885 113.311 66.187C113.113 66.3855 113.001 66.6547 113 66.9356Z" fill="#FF5653"/>
<path d="M61.874 73.9199C61.874 74.0591 61.9153 74.1953 61.9926 74.311C62.0699 74.4268 62.1797 74.5171 62.3083 74.5703C62.4368 74.6236 62.5783 74.6376 62.7147 74.6104C62.8512 74.5832 62.9766 74.5162 63.0749 74.4177C63.1733 74.3193 63.2403 74.1938 63.2675 74.0572C63.2946 73.9207 63.2807 73.7791 63.2274 73.6504C63.1742 73.5218 63.084 73.4118 62.9683 73.3345C62.8526 73.2571 62.7166 73.2158 62.5775 73.2158C62.391 73.2162 62.2123 73.2904 62.0804 73.4224C61.9486 73.5544 61.8744 73.7333 61.874 73.9199Z" fill="#FFB2C6"/>
<path d="M9.56177 91.0361C9.56177 91.1753 9.60302 91.3115 9.68032 91.4272C9.75762 91.543 9.86749 91.6333 9.99603 91.6866C10.1246 91.7398 10.266 91.7538 10.4025 91.7266C10.5389 91.6995 10.6643 91.6324 10.7627 91.5339C10.8611 91.4355 10.9281 91.31 10.9552 91.1734C10.9823 91.0369 10.9684 90.8953 10.9152 90.7667C10.8619 90.638 10.7718 90.5281 10.6561 90.4507C10.5404 90.3733 10.4044 90.332 10.2652 90.332C10.0787 90.332 9.89973 90.4062 9.7678 90.5382C9.63587 90.6703 9.56177 90.8494 9.56177 91.0361Z" fill="#F74945"/>
<path d="M122.049 45.163C122.049 45.3023 122.09 45.4384 122.167 45.5542C122.245 45.67 122.355 45.7602 122.483 45.8135C122.612 45.8668 122.753 45.8807 122.89 45.8536C123.026 45.8264 123.151 45.7594 123.25 45.6609C123.348 45.5624 123.415 45.437 123.442 45.3004C123.469 45.1638 123.456 45.0223 123.402 44.8936C123.349 44.765 123.259 44.655 123.143 44.5776C123.027 44.5003 122.891 44.459 122.752 44.459C122.566 44.459 122.387 44.5332 122.255 44.6652C122.123 44.7972 122.049 44.9763 122.049 45.163Z" fill="#FFB2C6"/>
<path d="M178.744 36.6406C178.744 36.7798 178.785 36.916 178.862 37.0317C178.94 37.1475 179.049 37.2378 179.178 37.2911C179.306 37.3443 179.448 37.3583 179.584 37.3311C179.721 37.304 179.846 37.2369 179.945 37.1384C180.043 37.04 180.11 36.9145 180.137 36.7779C180.164 36.6414 180.15 36.4998 180.097 36.3712C180.044 36.2425 179.954 36.1325 179.838 36.0552C179.722 35.9778 179.586 35.9365 179.447 35.9365C179.261 35.9365 179.082 36.0107 178.95 36.1427C178.818 36.2748 178.744 36.4539 178.744 36.6406Z" fill="#3D5CFF"/>
<path d="M102.791 49.7558C102.791 49.6166 102.75 49.4804 102.672 49.3647C102.595 49.2489 102.485 49.1586 102.357 49.1054C102.228 49.0521 102.087 49.0381 101.95 49.0653C101.814 49.0925 101.688 49.1595 101.59 49.258C101.492 49.3564 101.425 49.4819 101.398 49.6185C101.37 49.755 101.384 49.8966 101.438 50.0253C101.491 50.1539 101.581 50.2639 101.697 50.3412C101.812 50.4186 101.948 50.4599 102.088 50.4599C102.18 50.4601 102.271 50.442 102.357 50.4066C102.442 50.3713 102.52 50.3195 102.585 50.2541C102.651 50.1886 102.702 50.111 102.738 50.0255C102.773 49.94 102.791 49.8483 102.791 49.7558Z" fill="#7BC8FF"/>
<path d="M70.3806 89.6572C70.3806 89.5179 70.3393 89.3818 70.262 89.266C70.1847 89.1502 70.0749 89.06 69.9463 89.0067C69.8178 88.9534 69.6763 88.9395 69.5399 88.9667C69.4034 88.9938 69.2781 89.0609 69.1797 89.1593C69.0813 89.2578 69.0143 89.3833 68.9872 89.5198C68.96 89.6564 68.9739 89.798 69.0272 89.9266C69.0804 90.0553 69.1706 90.1652 69.2863 90.2426C69.402 90.32 69.538 90.3612 69.6771 90.3612C69.7695 90.3614 69.8611 90.3433 69.9465 90.308C70.032 90.2727 70.1096 90.2208 70.1749 90.1554C70.2403 90.09 70.2921 90.0123 70.3274 89.9268C70.3627 89.8413 70.3808 89.7497 70.3806 89.6572Z" fill="#7BC8FF"/>
<path d="M165.83 49.4033C165.83 49.264 165.789 49.1279 165.711 49.0121C165.634 48.8963 165.524 48.8061 165.396 48.7528C165.267 48.6995 165.126 48.6856 164.989 48.7127C164.853 48.7399 164.728 48.807 164.629 48.9054C164.531 49.0039 164.464 49.1293 164.437 49.2659C164.409 49.4025 164.423 49.5441 164.477 49.6727C164.53 49.8014 164.62 49.9113 164.736 49.9887C164.851 50.0661 164.987 50.1073 165.127 50.1073C165.313 50.107 165.492 50.0327 165.624 49.9007C165.755 49.7688 165.83 49.5899 165.83 49.4033Z" fill="#7BC8FF"/>
<path d="M131.997 47.2187C131.997 47.0795 131.956 46.9433 131.878 46.8276C131.801 46.7118 131.691 46.6215 131.563 46.5682C131.434 46.515 131.293 46.501 131.156 46.5282C131.02 46.5553 130.895 46.6224 130.796 46.7209C130.698 46.8193 130.631 46.9448 130.604 47.0814C130.576 47.2179 130.59 47.3595 130.644 47.4881C130.697 47.6168 130.787 47.7268 130.903 47.8041C131.018 47.8815 131.154 47.9228 131.294 47.9228C131.386 47.9228 131.477 47.9046 131.563 47.8692C131.648 47.8338 131.726 47.7819 131.791 47.7166C131.856 47.6512 131.908 47.5736 131.944 47.4881C131.979 47.4027 131.997 47.3112 131.997 47.2187Z" fill="#7BC8FF"/>
<path d="M38.4731 75.6035C38.4731 75.4642 38.4319 75.3281 38.3546 75.2123C38.2773 75.0965 38.1674 75.0063 38.0389 74.953C37.9103 74.8997 37.7689 74.8858 37.6324 74.9129C37.4959 74.9401 37.3706 75.0072 37.2722 75.1056C37.1738 75.2041 37.1068 75.3295 37.0797 75.4661C37.0525 75.6027 37.0665 75.7443 37.1197 75.8729C37.173 76.0016 37.2631 76.1115 37.3788 76.1889C37.4945 76.2662 37.6305 76.3075 37.7697 76.3075C37.9562 76.3075 38.1351 76.2334 38.2671 76.1013C38.399 75.9693 38.4731 75.7902 38.4731 75.6035Z" fill="#7BC8FF"/>
<path d="M83.625 83.5566C83.625 83.4173 83.5837 83.2812 83.5064 83.1654C83.4291 83.0497 83.3192 82.9594 83.1907 82.9061C83.0622 82.8528 82.9207 82.8389 82.7843 82.8661C82.6478 82.8932 82.5224 82.9603 82.4241 83.0588C82.3257 83.1572 82.2587 83.2827 82.2315 83.4192C82.2044 83.5558 82.2183 83.6974 82.2716 83.826C82.3248 83.9547 82.415 84.0646 82.5306 84.142C82.6463 84.2194 82.7824 84.2607 82.9215 84.2607C83.108 84.2603 83.2867 84.186 83.4186 84.0541C83.5504 83.9221 83.6246 83.7432 83.625 83.5566Z" fill="#FF5653"/>
<path d="M83.6368 60.0268C83.6368 59.8077 83.5718 59.5935 83.4502 59.4113C83.3286 59.2291 83.1557 59.0871 82.9534 59.0033C82.7511 58.9194 82.5286 58.8975 82.3139 58.9402C82.0991 58.983 81.9019 59.0885 81.7471 59.2434C81.5922 59.3984 81.4868 59.5958 81.4441 59.8107C81.4014 60.0256 81.4233 60.2483 81.5071 60.4508C81.5909 60.6532 81.7328 60.8262 81.9148 60.948C82.0968 61.0697 82.3109 61.1347 82.5298 61.1347C82.8234 61.1347 83.1049 61.018 83.3125 60.8102C83.5201 60.6024 83.6368 60.3206 83.6368 60.0268Z" fill="#7BC8FF"/>
<path d="M182.656 38.797C182.655 39.0067 182.717 39.2117 182.833 39.3862C182.95 39.5607 183.115 39.6967 183.308 39.7772C183.502 39.8576 183.715 39.8788 183.92 39.838C184.126 39.7973 184.315 39.6964 184.463 39.5482C184.611 39.4 184.712 39.2112 184.753 39.0055C184.794 38.7999 184.773 38.5867 184.693 38.3929C184.613 38.1992 184.477 38.0335 184.303 37.917C184.129 37.8005 183.924 37.7383 183.715 37.7383C183.434 37.7383 183.165 37.8498 182.966 38.0483C182.768 38.2468 182.656 38.5161 182.656 38.797Z" fill="#FF5653"/>
<path d="M45.385 72.4467C45.384 72.9221 45.5239 73.3871 45.7871 73.7828C46.0503 74.1785 46.4248 74.4872 46.8634 74.6698C47.3019 74.8523 47.7847 74.9006 48.2507 74.8084C48.7166 74.7162 49.1448 74.4877 49.4809 74.1518C49.817 73.816 50.046 73.3878 50.1389 72.9216C50.2318 72.4554 50.1844 71.9722 50.0027 71.533C49.821 71.0938 49.5131 70.7184 49.1182 70.4544C48.7232 70.1903 48.2588 70.0496 47.7838 70.0498C47.1482 70.0495 46.5384 70.3018 46.0886 70.7512C45.6388 71.2007 45.3857 71.8106 45.385 72.4467Z" fill="#FFB2C6"/>
<path d="M194.013 28.66C193.903 29.855 193.442 30.9905 192.687 31.923C191.932 32.8555 190.918 33.543 189.773 33.8988C188.627 34.2545 187.403 34.2624 186.253 33.9215C185.103 33.5806 184.08 32.9062 183.313 31.9836C182.547 31.0609 182.07 29.9315 181.945 28.738C181.819 27.5445 182.05 26.3406 182.608 25.2784C183.166 24.2162 184.027 23.3435 185.08 22.7705C186.134 22.1975 187.334 21.9501 188.528 22.0594C189.321 22.1322 190.092 22.3607 190.797 22.7319C191.502 23.103 192.127 23.6095 192.637 24.2224C193.146 24.8354 193.53 25.5428 193.766 26.3042C194.002 27.0656 194.086 27.8661 194.013 28.66Z" fill="#F74945"/>
<path d="M176.276 30.5684C176.606 32.1357 182.108 32.3026 188.561 30.9437C195.014 29.5848 199.988 27.2111 199.658 25.6438C199.328 24.0765 193.827 23.9095 187.373 25.2698C180.919 26.63 175.953 29.0011 176.276 30.5684Z" fill="#3D5CFF"/>
<path d="M188.277 29.547C191.541 28.8598 194.053 27.6626 193.911 26.8667C193.756 26.0785 193.445 25.329 192.998 24.6617C192.551 23.9944 191.977 23.4226 191.307 22.9793C190.638 22.536 189.887 22.2302 189.098 22.0795C188.31 21.9287 187.5 21.9362 186.714 22.1013C185.928 22.2664 185.183 22.586 184.522 23.0415C183.861 23.4969 183.297 24.0792 182.862 24.7546C182.427 25.43 182.131 26.185 181.99 26.9759C181.849 27.7668 181.866 28.5778 182.041 29.362C182.225 30.1514 185.007 30.2343 188.277 29.547Z" fill="#F74945"/>
<path d="M80.987 50.1152C81.4541 48.7681 80.7417 47.2969 79.3956 46.8294C78.0496 46.3618 76.5796 47.0749 76.1125 48.4221C75.6453 49.7692 76.3578 51.2404 77.7038 51.7079C79.0499 52.1755 80.5198 51.4624 80.987 50.1152Z" fill="#3D5CFF"/>
<path d="M142.295 62.2342C143.464 62.2224 144.402 61.2643 144.391 60.0942C144.379 58.9242 143.421 57.9853 142.252 57.9971C141.083 58.009 140.145 58.9671 140.157 60.1371C140.169 61.3071 141.126 62.2461 142.295 62.2342Z" fill="#F74945"/>
<path d="M159.738 47.1226C156.257 46.7343 155.287 42.8516 155.083 38.9146C155.08 38.8793 155.064 38.8464 155.038 38.8224C155.012 38.7984 154.978 38.7851 154.943 38.7852C154.908 38.7854 154.874 38.7988 154.848 38.8227C154.822 38.8467 154.806 38.8794 154.803 38.9146C154.614 42.3844 153.982 46.2658 150.148 47.1226C150.125 47.1284 150.105 47.1417 150.09 47.1603C150.076 47.1789 150.068 47.2019 150.068 47.2255C150.068 47.2491 150.076 47.2721 150.09 47.2907C150.105 47.3093 150.125 47.3226 150.148 47.3284C153.858 48.0803 154.533 51.8362 154.803 55.5364C154.806 55.5718 154.822 55.6047 154.848 55.6287C154.875 55.6527 154.909 55.666 154.944 55.6658C154.98 55.6659 155.014 55.6526 155.04 55.6286C155.065 55.6046 155.081 55.5717 155.084 55.5364C155.164 52.2154 155.965 48.123 159.739 47.3284C159.845 47.3051 159.853 47.142 159.738 47.1226Z" fill="#5F70FA"/>
<path d="M107.812 60.0843C105.904 59.8694 105.372 57.7417 105.26 55.5842C105.257 55.5652 105.248 55.5477 105.234 55.5351C105.22 55.5224 105.201 55.5155 105.182 55.5156C105.163 55.5158 105.145 55.5229 105.131 55.5355C105.117 55.5481 105.108 55.5655 105.106 55.5842C105.002 57.4867 104.656 59.6145 102.553 60.0843C102.541 60.0876 102.53 60.0949 102.522 60.105C102.514 60.1152 102.51 60.1277 102.51 60.1406C102.51 60.1534 102.514 60.1659 102.522 60.1761C102.53 60.1863 102.541 60.1936 102.553 60.1969C104.587 60.6084 104.956 62.6676 105.106 64.6956C105.107 64.7146 105.116 64.7323 105.13 64.745C105.145 64.7577 105.163 64.7646 105.182 64.7642C105.201 64.7646 105.22 64.7577 105.234 64.745C105.248 64.7323 105.257 64.7146 105.258 64.6956C105.302 62.8746 105.742 60.6317 107.812 60.1969C107.868 60.18 107.868 60.0843 107.812 60.0843Z" fill="#3D5CFF"/>
<path d="M72.0177 69.4828C72.018 69.7471 71.9399 70.0055 71.7933 70.2253C71.6468 70.4452 71.4384 70.6166 71.1945 70.7178C70.9506 70.8191 70.6821 70.8456 70.4231 70.7941C70.1641 70.7426 69.9262 70.6154 69.7395 70.4285C69.5528 70.2417 69.4257 70.0036 69.3742 69.7443C69.3228 69.4851 69.3493 69.2165 69.4505 68.9724C69.5516 68.7282 69.7229 68.5197 69.9425 68.373C70.1622 68.2263 70.4204 68.1482 70.6845 68.1484C71.038 68.1488 71.3769 68.2895 71.6268 68.5396C71.8768 68.7898 72.0174 69.129 72.0177 69.4828Z" fill="#FF5653"/>
<path d="M58.1549 90.7582C58.1552 91.0225 58.0771 91.2809 57.9306 91.5007C57.784 91.7206 57.5756 91.892 57.3317 91.9932C57.0878 92.0945 56.8193 92.121 56.5603 92.0695C56.3013 92.018 56.0634 91.8908 55.8767 91.7039C55.69 91.517 55.5629 91.2789 55.5114 91.0197C55.46 90.7605 55.4865 90.4919 55.5877 90.2477C55.6888 90.0036 55.8601 89.795 56.0797 89.6484C56.2994 89.5017 56.5576 89.4236 56.8217 89.4238C57.1752 89.4242 57.5141 89.5649 57.764 89.815C58.014 90.0652 58.1546 90.4044 58.1549 90.7582Z" fill="#3D5CFF"/>
<path d="M50.3301 64.8589C50.3298 64.6832 50.3817 64.5113 50.479 64.3651C50.5764 64.2189 50.7149 64.1049 50.8771 64.0376C51.0393 63.9702 51.2177 63.9525 51.3899 63.9867C51.5621 64.0209 51.7203 64.1055 51.8445 64.2298C51.9686 64.354 52.0531 64.5123 52.0873 64.6847C52.1215 64.857 52.1038 65.0356 52.0365 65.1979C51.9692 65.3602 51.8553 65.4989 51.7092 65.5963C51.5631 65.6938 51.3915 65.7457 51.2159 65.7454C50.9811 65.7451 50.7559 65.6516 50.5899 65.4854C50.4238 65.3192 50.3304 65.0939 50.3301 64.8589Z" fill="#7BC8FF"/>
<path d="M89.5489 73.9332C92.8439 73.6898 93.762 71.2813 93.9573 68.8404C93.9638 68.7964 94.0207 68.7627 94.0866 68.7627C94.1552 68.7627 94.2159 68.7951 94.2159 68.8404C94.3944 70.994 94.9919 73.4025 98.6243 73.9332C98.7265 73.9487 98.7265 74.0471 98.6243 74.0626C95.1121 74.5285 94.4746 76.8594 94.2159 79.1554C94.2095 79.1994 94.1526 79.233 94.0866 79.233C94.0181 79.233 93.9573 79.1994 93.9573 79.1554C93.881 77.095 93.122 74.5557 89.5477 74.0626C89.4468 74.0406 89.4455 73.9332 89.5489 73.9332Z" fill="#5F70FA"/>
<path d="M20.1502 81.7521C20.1502 81.9277 20.0982 82.0994 20.0007 82.2454C19.9032 82.3914 19.7647 82.5052 19.6026 82.5724C19.4405 82.6396 19.2621 82.6571 19.09 82.6229C18.9179 82.5886 18.7599 82.5041 18.6358 82.3799C18.5117 82.2557 18.4273 82.0975 18.393 81.9253C18.3588 81.7531 18.3764 81.5746 18.4435 81.4123C18.5106 81.2501 18.6244 81.1114 18.7702 81.0139C18.9161 80.9163 19.0876 80.8643 19.2631 80.8643C19.3796 80.8641 19.4951 80.8869 19.6028 80.9315C19.7105 80.9761 19.8083 81.0414 19.8908 81.1239C19.9732 81.2064 20.0385 81.3043 20.083 81.4121C20.1275 81.5199 20.1504 81.6355 20.1502 81.7521Z" fill="#FFB2C6"/>
<path d="M37.4333 84.8209C37.4346 85.6193 37.1992 86.4002 36.7569 87.0647C36.3146 87.7291 35.6854 88.2474 34.9487 88.5538C34.212 88.8602 33.4011 88.9411 32.6186 88.7861C31.836 88.6311 31.1169 88.2473 30.5524 87.6832C29.9878 87.1191 29.6032 86.4 29.4471 85.6171C29.291 84.8341 29.3704 84.0224 29.6754 83.2846C29.9804 82.5469 30.4972 81.9162 31.1604 81.4725C31.8237 81.0288 32.6035 80.792 33.4012 80.792C34.4695 80.792 35.4941 81.2163 36.25 81.9717C37.006 82.727 37.4316 83.7518 37.4333 84.8209Z" fill="#5F70FA"/>
</g>
</svg>
