<svg width="230" height="123" viewBox="0 0 230 123" fill="none" xmlns="http://www.w3.org/2000/svg">
<path d="M136.315 62.7998C125.095 65.5498 120.175 67.5098 115.655 72.3898C112.245 76.0798 107.975 78.4598 101.315 81.3898L99.3154 82.2198C96.3784 83.4549 93.3491 84.4579 90.2554 85.2198C85.7164 86.374 81.3018 87.9717 77.0754 89.9898C76.3554 90.3198 75.5954 90.6898 74.7954 91.0798C71.9554 92.4698 68.6054 94.2198 64.5754 96.4698C65.1354 104.81 66.8454 112.87 66.7254 121.41C66.7221 121.602 66.7596 121.793 66.8354 121.97C66.9168 122.139 67.0326 122.289 67.1754 122.41C67.3229 122.529 67.493 122.618 67.6754 122.67C67.86 122.71 68.0509 122.71 68.2354 122.67C72.0354 121.75 75.4954 121.04 76.8454 115.9C77.8454 112.17 77.1554 107.3 76.5354 102.57C76.6554 103.13 76.7754 103.71 76.9054 104.29C77.5954 108.46 79.0254 114.54 79.9054 118.64C79.9873 119.006 80.2053 119.328 80.5154 119.539C80.8255 119.751 81.2044 119.837 81.5754 119.78C86.3554 119.03 90.9154 114.72 89.9254 107.78C88.9154 100.18 86.3654 95.7998 87.2754 91.3298C87.5998 90.4963 88.1904 89.7932 88.9554 89.3298C88.8033 89.959 88.7195 90.6027 88.7054 91.2498C88.6554 99.6598 97.7054 101.83 106.635 106.72C106.768 106.793 106.915 106.837 107.065 106.85C107.216 106.868 107.369 106.855 107.513 106.81C107.658 106.765 107.792 106.69 107.905 106.59C108.023 106.491 108.119 106.368 108.185 106.23C109.995 102.74 110.275 99.8798 107.695 96.6798C106.377 95.3159 104.86 94.1594 103.195 93.2498C101.425 92.0898 101.605 91.8898 101.685 90.4098C102.025 83.4098 113.965 84.0398 122.355 77.4098C126.185 74.4098 128.735 70.6498 131.895 67.1698C134.059 65.0438 136.577 63.3112 139.335 62.0498L136.315 62.7998Z" fill="#3D5CFF"/>
<path d="M140.635 61.4199C140.205 61.6099 139.775 61.7999 139.335 62.0099L140.815 61.6399C140.747 61.5737 140.687 61.4999 140.635 61.4199Z" fill="#240E54"/>
<path d="M144.315 60.73C178.105 51.85 194.035 43.86 229.815 37L223.585 0C195.355 13.18 171.645 24.16 146.585 33.3C147.096 33.8147 147.472 34.4475 147.68 35.1423C147.888 35.8371 147.921 36.5724 147.777 37.2832C147.633 37.994 147.316 38.6582 146.854 39.2171C146.392 39.776 145.799 40.2122 145.128 40.4872C144.457 40.7622 143.728 40.8675 143.007 40.7937C142.285 40.7199 141.593 40.4693 140.991 40.0641C140.39 39.659 139.898 39.1117 139.558 38.4708C139.219 37.8299 139.043 37.1152 139.045 36.39C139.045 36.25 139.045 36.11 139.045 35.97C136.755 36.76 134.455 37.55 132.125 38.31C119.365 42.51 97.4053 44.2 81.0253 48.53C81.1999 49.0491 81.1999 49.6109 81.0253 50.13C80.8007 50.7754 80.3291 51.3053 79.7142 51.6034C79.0992 51.9015 78.3912 51.9434 77.7453 51.72C77.3531 51.5816 76.9996 51.3515 76.7144 51.0488C76.4291 50.7462 76.2203 50.3797 76.1053 49.98C74.0603 50.6432 72.0568 51.4279 70.1053 52.33C63.1053 55.65 39.9153 64.02 33.4653 67.77C24.2053 73.13 17.7653 78.96 0.915343 87.24C0.586654 87.4125 0.323024 87.6873 0.164271 88.0228C0.00551756 88.3584 -0.0397358 88.7365 0.0353435 89.1C1.57534 94.74 7.95534 95.85 13.3253 93.78C18.8802 91.4376 24.281 88.7456 29.4953 85.72V85.63C29.3454 84.8441 29.4253 84.0317 29.7253 83.29C30.0353 82.5545 30.5531 81.9255 31.2153 81.48C31.9857 80.9599 32.9132 80.7243 33.8384 80.8137C34.7636 80.9031 35.6288 81.312 36.2853 81.97L36.5853 81.81C43.3353 78.25 49.7353 76.76 60.0353 76.24C67.6653 75.86 67.9253 75.24 71.8053 73.84C73.3653 73.29 73.9453 74.35 72.8053 75.21C68.5253 78.31 67.0953 81.42 58.8053 86.47C50.1353 91.73 47.3953 93.55 49.1553 97.06C51.6053 101.92 57.8453 100.26 62.7053 97.5L64.7053 96.36C68.7053 94.11 72.0853 92.36 74.9253 90.97C75.7253 90.58 76.4853 90.21 77.2053 89.88C81.4317 87.8619 85.8463 86.2642 90.3853 85.11C93.4791 84.3481 96.5083 83.3451 99.4453 82.11L101.445 81.28C108.105 78.4 112.375 76.02 115.785 72.28C120.305 67.4 125.225 65.44 136.445 62.69L139.445 61.93C139.885 61.72 140.315 61.53 140.745 61.34C140.456 60.9789 140.295 60.5324 140.285 60.07C140.28 59.5112 140.495 58.9728 140.885 58.572C141.275 58.1713 141.807 57.9405 142.365 57.93C142.926 57.9247 143.466 58.1415 143.867 58.5332C144.268 58.9249 144.497 59.4595 144.505 60.02C144.48 60.2652 144.416 60.5048 144.315 60.73ZM180.155 36.8C180.131 36.9368 180.064 37.0626 179.965 37.16C179.867 37.2576 179.742 37.3237 179.605 37.35C179.472 37.3897 179.329 37.3897 179.195 37.35C179.065 37.3011 178.956 37.2094 178.885 37.09C178.806 36.9756 178.764 36.8393 178.765 36.7C178.765 36.5137 178.837 36.3345 178.965 36.2C179.101 36.0729 179.279 36.0015 179.465 36C179.605 35.9985 179.741 36.0404 179.855 36.12C179.975 36.1907 180.066 36.3001 180.115 36.43C180.161 36.5477 180.175 36.6753 180.155 36.8ZM184.775 39.03C184.734 39.2347 184.633 39.4227 184.486 39.5704C184.338 39.718 184.15 39.8188 183.945 39.86C183.737 39.9002 183.522 39.8793 183.325 39.8C183.166 39.7322 183.025 39.6262 182.916 39.4913C182.807 39.3564 182.732 39.1968 182.699 39.0265C182.666 38.8562 182.675 38.6803 182.726 38.5144C182.777 38.3484 182.867 38.1975 182.99 38.0748C183.113 37.9521 183.264 37.8614 183.43 37.8107C183.596 37.7599 183.772 37.7507 183.942 37.7838C184.112 37.8169 184.272 37.8913 184.407 38.0005C184.542 38.1097 184.648 38.2503 184.715 38.41C184.793 38.6035 184.814 38.8151 184.775 39.02V39.03ZM182.065 26.75C182.22 26.0408 182.498 25.364 182.885 24.75C183.32 24.0757 183.884 23.4943 184.545 23.0397C185.206 22.5851 185.95 22.2662 186.736 22.1015C187.521 21.9369 188.331 21.9297 189.119 22.0805C189.906 22.2313 190.657 22.5371 191.325 22.98C191.827 23.3264 192.275 23.7441 192.655 24.22L192.835 24.45C196.675 24.13 199.435 24.54 199.665 25.63C199.895 26.72 197.535 28.22 193.885 29.48C193.644 30.5078 193.139 31.4549 192.42 32.2282C191.701 33.0015 190.793 33.5742 189.785 33.89C188.637 34.2347 187.413 34.2347 186.265 33.89C185.113 33.552 184.089 32.8762 183.325 31.95C183.265 31.88 183.215 31.8 183.155 31.72C179.295 32.05 176.515 31.64 176.285 30.54C176.055 29.44 178.425 28 182.065 26.74V26.75ZM173.065 39.03C173.412 38.6856 173.866 38.4708 174.352 38.4216C174.839 38.3725 175.327 38.4919 175.735 38.76C176.081 38.9953 176.352 39.3251 176.515 39.71C176.679 40.0984 176.721 40.5273 176.635 40.94C176.575 41.2466 176.447 41.5359 176.261 41.7871C176.075 42.0382 175.836 42.245 175.56 42.3923C175.285 42.5397 174.98 42.624 174.668 42.6391C174.355 42.6543 174.044 42.5999 173.755 42.48C173.433 42.3483 173.148 42.1388 172.926 41.8701C172.704 41.6014 172.552 41.282 172.484 40.9403C172.415 40.5986 172.433 40.2453 172.534 39.912C172.636 39.5787 172.818 39.2756 173.065 39.03ZM164.415 49.29C164.444 49.1546 164.51 49.0299 164.605 48.93C164.705 48.8315 164.829 48.7623 164.965 48.73C165.103 48.7022 165.246 48.7158 165.376 48.7692C165.506 48.8226 165.617 48.9134 165.695 49.03C165.766 49.1478 165.804 49.2825 165.805 49.42C165.807 49.5124 165.79 49.6042 165.755 49.69C165.721 49.7758 165.67 49.854 165.605 49.92C165.473 50.0534 165.293 50.1289 165.105 50.13C164.966 50.1302 164.83 50.0884 164.715 50.01C164.598 49.9328 164.507 49.821 164.455 49.69C164.414 49.5565 164.414 49.4135 164.455 49.28L164.415 49.29ZM150.065 47.18H150.125C153.965 46.33 154.595 42.44 154.785 38.97C154.778 38.9405 154.778 38.9095 154.785 38.88C154.818 38.87 154.853 38.87 154.885 38.88C154.915 38.8701 154.946 38.8701 154.975 38.88C155 38.9051 155.017 38.9361 155.025 38.97C155.225 42.91 156.195 46.79 159.675 47.18C159.698 47.187 159.717 47.2009 159.731 47.2198C159.745 47.2387 159.753 47.2616 159.753 47.285C159.753 47.3084 159.745 47.3313 159.731 47.3502C159.717 47.3691 159.698 47.383 159.675 47.39C155.905 48.18 155.105 52.28 155.025 55.6C155.033 55.6295 155.033 55.6605 155.025 55.69C154.998 55.7146 154.962 55.7282 154.925 55.7282C154.888 55.7282 154.853 55.7146 154.825 55.69C154.816 55.6607 154.816 55.6293 154.825 55.6C154.555 51.9 153.875 48.14 150.165 47.39H150.105C150.101 47.3702 150.101 47.3498 150.105 47.33C150.089 47.3065 150.08 47.2786 150.08 47.25C150.08 47.2214 150.089 47.1935 150.105 47.17L150.065 47.18ZM10.9353 91.18C10.9115 91.317 10.845 91.443 10.7453 91.54C10.646 91.6385 10.5215 91.7077 10.3853 91.74C10.2509 91.7752 10.1097 91.7752 9.97534 91.74C9.84928 91.6848 9.7417 91.5945 9.66534 91.48C9.58694 91.3651 9.54511 91.2291 9.54534 91.09C9.54402 90.9976 9.56101 90.9058 9.59534 90.82C9.62966 90.7342 9.68065 90.656 9.74534 90.59C9.87766 90.4566 10.0575 90.3811 10.2453 90.38C10.3847 90.3785 10.521 90.4204 10.6353 90.5C10.7573 90.5688 10.8551 90.6736 10.9153 90.8C10.971 90.9184 10.9918 91.0502 10.9753 91.18H10.9353ZM19.9353 82.26C19.8363 82.4036 19.6972 82.5148 19.5353 82.58C19.3664 82.635 19.1843 82.635 19.0153 82.58C18.8445 82.5473 18.6876 82.4637 18.5653 82.34C18.4417 82.2177 18.358 82.0608 18.3253 81.89C18.2703 81.721 18.2703 81.539 18.3253 81.37C18.3947 81.2078 18.5093 81.0689 18.6553 80.97C18.8009 80.8741 18.971 80.822 19.1453 80.82C19.2619 80.8233 19.377 80.847 19.4853 80.89C19.5913 80.9379 19.6891 81.002 19.7753 81.08C19.8533 81.1662 19.9174 81.2641 19.9653 81.37C20.0691 81.4942 20.1412 81.6418 20.1753 81.8C20.1637 81.9633 20.1122 82.1213 20.0253 82.26H19.9353ZM38.1953 76.11C38.0808 76.2265 37.9291 76.2993 37.7666 76.3157C37.604 76.3321 37.4409 76.2912 37.3053 76.2C37.1928 76.1172 37.1033 76.0071 37.0453 75.88C37.011 75.7489 37.011 75.6111 37.0453 75.48C37.0732 75.3422 37.1431 75.2164 37.2453 75.12C37.3433 75.0197 37.4684 74.9502 37.6053 74.92C37.7364 74.8852 37.8743 74.8852 38.0053 74.92C38.1324 74.978 38.2426 75.0675 38.3253 75.18C38.4037 75.2949 38.4456 75.4309 38.4453 75.57C38.4569 75.6662 38.4487 75.7637 38.4212 75.8565C38.3937 75.9494 38.3474 76.0357 38.2853 76.11H38.1953ZM50.0653 72.93C49.9781 73.3807 49.7629 73.7967 49.4454 74.1283C49.128 74.4599 48.7218 74.6931 48.2753 74.8C47.8198 74.8897 47.3481 74.8481 46.9153 74.68C46.5518 74.528 46.2313 74.2889 45.9821 73.9837C45.7329 73.6785 45.5626 73.3166 45.4864 72.9301C45.4102 72.5435 45.4303 72.1441 45.545 71.7672C45.6597 71.3902 45.8654 71.0473 46.144 70.7687C46.4226 70.4901 46.7655 70.2843 47.1425 70.1696C47.5194 70.055 47.9188 70.0348 48.3054 70.1111C48.692 70.1873 49.0538 70.3575 49.359 70.6068C49.6642 70.856 49.9034 71.1765 50.0553 71.54C50.2272 71.9828 50.2621 72.4671 50.1553 72.93H50.0653ZM51.9653 65.21C51.8971 65.3716 51.7832 65.5098 51.6375 65.6075C51.4918 65.7052 51.3208 65.7582 51.1453 65.76C50.9102 65.7552 50.6854 65.6624 50.5153 65.5C50.3557 65.3289 50.2665 65.104 50.2653 64.87C50.2595 64.696 50.3084 64.5246 50.4053 64.38C50.5043 64.2339 50.6431 64.1194 50.8053 64.05C50.9709 63.9951 51.1498 63.9951 51.3153 64.05C51.4893 64.0817 51.6496 64.1657 51.7746 64.2907C51.8997 64.4158 51.9836 64.576 52.0153 64.75C52.073 64.8962 52.0869 65.056 52.0553 65.21H51.9653ZM63.1953 74.07C63.1709 74.2068 63.1045 74.3326 63.0053 74.43C62.9068 74.5276 62.7815 74.5937 62.6453 74.62C62.5116 74.6597 62.3691 74.6597 62.2353 74.62C62.1054 74.5711 61.9961 74.4794 61.9253 74.36C61.8341 74.2245 61.7932 74.0613 61.8096 73.8988C61.8261 73.7362 61.8988 73.5845 62.0153 73.47C62.1462 73.3418 62.3221 73.27 62.5053 73.27C62.643 73.2697 62.7781 73.3078 62.8953 73.38C63.013 73.4572 63.1039 73.569 63.1553 73.7C63.2363 73.8067 63.2818 73.9361 63.2853 74.07H63.1953ZM71.7253 70.24C71.5771 70.4581 71.3686 70.6283 71.1253 70.73C70.8822 70.8328 70.613 70.8573 70.3553 70.8C70.0944 70.7521 69.8539 70.6266 69.6653 70.44C69.4825 70.2486 69.3577 70.0094 69.3053 69.75C69.2519 69.4912 69.2798 69.2223 69.3853 68.98C69.4871 68.7367 69.6573 68.5283 69.8753 68.38C70.0963 68.2383 70.3529 68.162 70.6153 68.16C70.9681 68.16 71.3064 68.3001 71.5558 68.5496C71.8052 68.799 71.9453 69.1373 71.9453 69.49C71.9721 69.7472 71.9271 70.0068 71.8153 70.24H71.7253ZM57.9153 91.51C57.7676 91.7284 57.5591 91.8988 57.3157 92.0001C57.0722 92.1014 56.8044 92.1292 56.5453 92.08C56.2836 92.0281 56.0434 91.8993 55.8553 91.71C55.6712 91.5227 55.5457 91.2858 55.4942 91.0282C55.4426 90.7707 55.4674 90.5037 55.5653 90.26C55.668 90.0173 55.8381 89.8091 56.0553 89.66C56.2765 89.5097 56.5379 89.4295 56.8053 89.43C57.1592 89.434 57.4971 89.5778 57.7453 89.83C57.8693 89.9531 57.9676 90.0995 58.0346 90.2609C58.1015 90.4223 58.1358 90.5953 58.1353 90.77C58.1334 91.0325 58.0571 91.2891 57.9153 91.51ZM70.3053 89.94C70.2723 90.0265 70.2212 90.1049 70.1553 90.17C70.0867 90.2314 70.0091 90.2819 69.9253 90.32C69.836 90.3351 69.7447 90.3351 69.6553 90.32C69.5162 90.3202 69.3803 90.2784 69.2653 90.2C69.1485 90.1243 69.0574 90.015 69.0038 89.8865C68.9503 89.758 68.9369 89.6163 68.9653 89.48C68.9957 89.3453 69.0613 89.2211 69.1553 89.12C69.2527 89.0209 69.3785 88.9545 69.5153 88.93C69.6483 88.885 69.7924 88.885 69.9253 88.93C70.0563 88.9815 70.1682 89.0723 70.2453 89.19C70.3206 89.3064 70.3622 89.4414 70.3653 89.58C70.3922 89.6995 70.3853 89.8242 70.3453 89.94H70.3053ZM83.6053 83.8C83.5706 83.905 83.5125 84.0008 83.4353 84.08C83.3201 84.1954 83.1678 84.2662 83.0053 84.28H82.9153C82.776 84.2815 82.6397 84.2396 82.5253 84.16C82.4079 84.087 82.3168 83.9784 82.2653 83.85C82.2204 83.717 82.2204 83.573 82.2653 83.44C82.2911 83.3037 82.3573 83.1782 82.4555 83.0801C82.5536 82.982 82.679 82.9157 82.8153 82.89C82.9483 82.845 83.0924 82.845 83.2253 82.89C83.352 82.9443 83.4599 83.0347 83.5353 83.15C83.6149 83.2644 83.6569 83.4007 83.6553 83.54C83.6536 83.6289 83.6367 83.7168 83.6053 83.8ZM83.3353 60.8C83.2321 60.9046 83.1091 60.9876 82.9734 61.0442C82.8378 61.1009 82.6923 61.13 82.5453 61.13C82.3279 61.1272 82.1159 61.0612 81.9353 60.94C81.7548 60.8148 81.6128 60.6416 81.5253 60.44C81.4438 60.2367 81.4231 60.0142 81.4657 59.7994C81.5083 59.5845 81.6124 59.3867 81.7653 59.23C81.9222 59.0768 82.1203 58.9726 82.3353 58.93C82.5501 58.8899 82.7718 58.9106 82.9753 58.99C83.1753 59.08 83.3479 59.2215 83.4753 59.4C83.5949 59.5845 83.6575 59.8001 83.6553 60.02C83.6559 60.1647 83.6279 60.308 83.573 60.4419C83.5181 60.5757 83.4374 60.6974 83.3353 60.8ZM98.6453 74.07C98.0221 74.1435 97.4145 74.3157 96.8453 74.58C96.3916 74.7838 95.9809 75.0723 95.6353 75.43C94.7722 76.49 94.2805 77.8038 94.2353 79.17C94.2353 79.17 94.1753 79.24 94.1053 79.24C94.0353 79.24 93.9753 79.24 93.9753 79.17C93.9644 78.7298 93.9142 78.2913 93.8253 77.86C93.7181 77.2088 93.4666 76.5899 93.0895 76.0484C92.7123 75.5068 92.2189 75.0564 91.6453 74.73C91.0414 74.4061 90.3844 74.1927 89.7053 74.1H89.5653C89.4653 74.1 89.4653 73.97 89.5653 73.97C89.8446 73.9452 90.1219 73.9018 90.3953 73.84C90.8616 73.7473 91.3104 73.582 91.7253 73.35L91.9753 73.17C92.6087 72.6503 93.1172 71.9951 93.4634 71.2525C93.8096 70.51 93.9845 69.6992 93.9753 68.88C93.9869 68.8555 94.0054 68.8349 94.0285 68.8207C94.0516 68.8065 94.0783 68.7993 94.1053 68.8C94.1753 68.8 94.2353 68.8 94.2353 68.88C94.4153 71.03 95.0154 73.44 98.6453 73.97C98.7453 73.96 98.7453 74.06 98.6453 74.07ZM102.105 50.47C101.966 50.4702 101.83 50.4284 101.715 50.35C101.605 50.2688 101.516 50.1625 101.455 50.04C101.416 49.9062 101.416 49.7638 101.455 49.63C101.486 49.4953 101.551 49.3711 101.645 49.27C101.743 49.1709 101.869 49.1045 102.005 49.08C102.138 49.035 102.282 49.035 102.415 49.08C102.546 49.1315 102.658 49.2223 102.735 49.34C102.811 49.4564 102.852 49.5914 102.855 49.73C102.855 49.8232 102.834 49.9152 102.795 50C102.764 50.0847 102.713 50.1603 102.645 50.22C102.58 50.2877 102.502 50.342 102.415 50.38C102.319 50.4305 102.214 50.4611 102.105 50.47ZM107.835 60.21C105.765 60.64 105.325 62.88 105.275 64.71H105.165C105.055 63.16 104.805 61.59 103.785 60.76C103.45 60.4773 103.047 60.2876 102.615 60.21C104.715 59.74 105.065 57.62 105.165 55.71C105.165 55.71 105.165 55.71 105.215 55.71C105.215 56.08 105.275 56.44 105.325 56.8C105.555 58.53 106.185 60.04 107.775 60.21C107.915 60.09 107.915 60.19 107.835 60.21ZM115.115 67.15C115.076 67.3584 114.975 67.5502 114.825 67.7C114.68 67.8508 114.491 67.9522 114.285 67.99C114.081 68.0311 113.868 68.0102 113.675 67.93C113.481 67.8496 113.314 67.714 113.195 67.54C113.082 67.3638 113.019 67.1596 113.015 66.95C113.023 66.6685 113.137 66.4004 113.335 66.2C113.502 66.0181 113.73 65.9042 113.975 65.8802C114.221 65.8562 114.467 65.9238 114.665 66.07C114.841 66.1822 114.978 66.3465 115.055 66.54C115.134 66.7331 115.155 66.9452 115.115 67.15ZM130.625 47.09C130.654 46.9546 130.72 46.8299 130.815 46.73C130.914 46.6324 131.039 46.5663 131.175 46.54C131.309 46.5003 131.452 46.5003 131.585 46.54C131.723 46.5849 131.84 46.677 131.915 46.8C131.995 46.9144 132.037 47.0507 132.035 47.19C132.05 47.2794 132.05 47.3706 132.035 47.46C132.002 47.5461 131.951 47.6244 131.885 47.6898C131.82 47.7552 131.741 47.8063 131.655 47.84C131.569 47.871 131.477 47.8879 131.385 47.89C131.223 47.9189 131.056 47.8868 130.915 47.8C130.796 47.7293 130.704 47.6199 130.655 47.49C130.603 47.3633 130.592 47.2231 130.625 47.09ZM123.465 45.31C123.435 45.4469 123.366 45.572 123.265 45.67C123.171 45.7733 123.044 45.8406 122.905 45.86C122.776 45.9042 122.635 45.9042 122.505 45.86C122.374 45.8085 122.263 45.7177 122.185 45.6C122.106 45.4856 122.064 45.3493 122.065 45.21C122.069 45.0256 122.144 44.8499 122.275 44.72C122.339 44.6521 122.417 44.5983 122.503 44.5621C122.589 44.526 122.682 44.5082 122.775 44.51C122.914 44.5098 123.05 44.5516 123.165 44.63C123.275 44.7112 123.365 44.8175 123.425 44.94C123.467 45.0586 123.481 45.1852 123.465 45.31ZM132.315 54.07C132.237 54.4839 132.035 54.8641 131.735 55.16C131.445 55.4616 131.067 55.6645 130.655 55.74C130.348 55.8025 130.03 55.7956 129.726 55.7198C129.421 55.6441 129.138 55.5014 128.895 55.3021C128.653 55.1029 128.458 54.8521 128.325 54.568C128.192 54.2839 128.124 53.9737 128.125 53.66C128.125 53.3815 128.18 53.1057 128.286 52.8483C128.392 52.5909 128.549 52.357 128.745 52.16C129.061 51.8526 129.462 51.6471 129.895 51.57H130.235C130.656 51.5679 131.067 51.6934 131.415 51.93C131.5 51.9946 131.58 52.0648 131.655 52.14C131.885 52.3462 132.069 52.5983 132.195 52.88C132.348 53.2571 132.39 53.67 132.315 54.07Z" fill="#240E54"/>
<path d="M143.425 40.7998C144.294 40.7985 145.142 40.541 145.865 40.0595C146.587 39.5779 147.152 38.8938 147.487 38.0929C147.822 37.292 147.914 36.4099 147.75 35.5573C147.586 34.7046 147.174 33.9193 146.565 33.2998C144.085 34.2131 141.585 35.1031 139.065 35.9698C139.065 36.1098 139.065 36.2498 139.065 36.3898C139.063 37.5516 139.52 38.6673 140.336 39.4935C141.153 40.3196 142.264 40.7892 143.425 40.7998Z" fill="#F74945"/>
<path d="M173.795 42.4696C174.084 42.5876 174.395 42.6405 174.707 42.6245C175.018 42.6085 175.322 42.5239 175.597 42.3768C175.873 42.2297 176.112 42.0238 176.298 41.7736C176.484 41.5234 176.613 41.2352 176.675 40.9296C176.761 40.5169 176.719 40.0879 176.555 39.6996C176.392 39.3146 176.121 38.9849 175.775 38.7496C175.367 38.4815 174.879 38.362 174.392 38.4112C173.906 38.4604 173.452 38.6752 173.105 39.0196C172.861 39.2663 172.68 39.5695 172.58 39.9023C172.48 40.2352 172.463 40.5875 172.532 40.9283C172.6 41.2691 172.751 41.5879 172.971 41.8567C173.191 42.1255 173.475 42.3359 173.795 42.4696Z" fill="#FFB2C6"/>
<path d="M130.235 51.5398H129.895C130.485 51.7098 131.075 51.8898 131.655 52.0798C131.58 52.0046 131.5 51.9344 131.415 51.8698C131.064 51.6438 130.653 51.5288 130.235 51.5398Z" fill="#7BC8FF"/>
<path d="M128.745 52.1603C128.548 52.3574 128.392 52.5913 128.286 52.8486C128.18 53.106 128.125 53.3818 128.125 53.6603C128.124 54.0793 128.246 54.4895 128.475 54.8403C128.709 55.1893 129.04 55.4612 129.429 55.6214C129.817 55.7817 130.244 55.823 130.655 55.7403C131.067 55.6648 131.445 55.4619 131.735 55.1603C132.035 54.8644 132.237 54.4842 132.315 54.0703C132.396 53.6607 132.354 53.2364 132.195 52.8503C132.069 52.5686 131.885 52.3166 131.655 52.1103C131.075 51.9203 130.485 51.7403 129.895 51.5703C129.461 51.6474 129.061 51.8529 128.745 52.1603Z" fill="#7BC8FF"/>
<path d="M114.665 66.0695C114.467 65.9233 114.221 65.8557 113.975 65.8797C113.73 65.9037 113.502 66.0176 113.335 66.1995C113.137 66.3999 113.023 66.668 113.015 66.9495C113.02 67.1591 113.082 67.3634 113.195 67.5395C113.314 67.7135 113.481 67.8491 113.675 67.9295C113.868 68.0097 114.081 68.0306 114.285 67.9895C114.491 67.9518 114.68 67.8503 114.825 67.6995C114.975 67.5497 115.076 67.3579 115.115 67.1495C115.155 66.9447 115.134 66.7327 115.055 66.5395C114.978 66.346 114.841 66.1817 114.665 66.0695Z" fill="#FF5653"/>
<path d="M62.9853 73.3405C62.868 73.2682 62.733 73.2301 62.5953 73.2305C62.412 73.2304 62.2361 73.3022 62.1053 73.4305C61.9888 73.545 61.916 73.6967 61.8995 73.8592C61.8831 74.0218 61.924 74.1849 62.0153 74.3205C62.086 74.4399 62.1954 74.5316 62.3253 74.5805C62.459 74.6202 62.6015 74.6202 62.7353 74.5805C62.8714 74.5542 62.9967 74.4881 63.0953 74.3905C63.1944 74.2931 63.2608 74.1673 63.2853 74.0305C63.3302 73.8975 63.3302 73.7534 63.2853 73.6205C63.2165 73.4985 63.1117 73.4007 62.9853 73.3405Z" fill="#FFB2C6"/>
<path d="M10.6753 90.4599C10.5609 90.3803 10.4246 90.3384 10.2853 90.3399C10.0974 90.341 9.91759 90.4165 9.78528 90.5499C9.72058 90.6159 9.6696 90.6941 9.63527 90.7799C9.60094 90.8657 9.58395 90.9575 9.58528 91.0499C9.58504 91.189 9.62687 91.325 9.70528 91.4399C9.78163 91.5544 9.88922 91.6446 10.0153 91.6999C10.1497 91.735 10.2909 91.735 10.4253 91.6999C10.5614 91.6676 10.686 91.5984 10.7853 91.4999C10.885 91.4029 10.9515 91.2769 10.9753 91.1399C11.0148 91.0095 11.0148 90.8703 10.9753 90.7399C10.9065 90.6179 10.8017 90.5201 10.6753 90.4599Z" fill="#F74945"/>
<path d="M122.505 45.8003C122.635 45.8445 122.776 45.8445 122.905 45.8003C123.044 45.7808 123.171 45.7136 123.265 45.6103C123.366 45.5123 123.435 45.3872 123.465 45.2503C123.5 45.1159 123.5 44.9747 123.465 44.8403C123.404 44.7177 123.315 44.6115 123.205 44.5303C123.09 44.4519 122.954 44.41 122.815 44.4103C122.722 44.4085 122.629 44.4263 122.543 44.4624C122.457 44.4986 122.379 44.5524 122.315 44.6203C122.184 44.7501 122.109 44.9259 122.105 45.1103C122.104 45.2496 122.146 45.3859 122.225 45.5003C122.285 45.6267 122.383 45.7315 122.505 45.8003Z" fill="#FFB2C6"/>
<path d="M179.855 36.0702C179.741 35.9907 179.605 35.9487 179.465 35.9502C179.28 35.9517 179.101 36.0231 178.965 36.1502C178.837 36.2848 178.765 36.464 178.765 36.6502C178.764 36.7895 178.806 36.9259 178.885 37.0402C178.956 37.1596 179.066 37.2514 179.195 37.3002C179.329 37.34 179.472 37.34 179.605 37.3002C179.742 37.274 179.867 37.2078 179.965 37.1102C180.065 37.0128 180.131 36.887 180.155 36.7502C180.195 36.6165 180.195 36.474 180.155 36.3402C180.089 36.2188 179.983 36.1236 179.855 36.0702Z" fill="#3D5CFF"/>
<path d="M101.715 50.3499C101.83 50.4283 101.966 50.4702 102.105 50.4699C102.197 50.4688 102.289 50.4518 102.375 50.4199C102.462 50.3819 102.54 50.3276 102.605 50.2599C102.673 50.2003 102.724 50.1246 102.755 50.0399C102.79 49.9644 102.811 49.883 102.815 49.7999C102.812 49.6613 102.771 49.5263 102.695 49.4099C102.618 49.2922 102.506 49.2014 102.375 49.1499C102.242 49.105 102.098 49.105 101.965 49.1499C101.829 49.1744 101.703 49.2408 101.605 49.3399C101.511 49.441 101.446 49.5652 101.415 49.6999C101.376 49.8337 101.376 49.9762 101.415 50.1099C101.496 50.2115 101.598 50.2936 101.715 50.3499Z" fill="#7BC8FF"/>
<path d="M69.9653 89.02C69.8323 88.9751 69.6883 88.9751 69.5553 89.02C69.4185 89.0445 69.2927 89.1109 69.1953 89.2101C69.1012 89.3111 69.0357 89.4353 69.0053 89.57C68.9768 89.7063 68.9903 89.848 69.0438 89.9765C69.0973 90.105 69.1885 90.2143 69.3053 90.29C69.4202 90.3684 69.5562 90.4103 69.6953 90.41C69.7847 90.4252 69.8759 90.4252 69.9653 90.41C70.0491 90.372 70.1267 90.3214 70.1953 90.26C70.2611 90.1949 70.3122 90.1165 70.3453 90.0301C70.3841 89.9453 70.4046 89.8533 70.4053 89.76C70.4021 89.6215 70.3606 89.4865 70.2853 89.37C70.2241 89.2188 70.1105 89.0945 69.9653 89.02Z" fill="#7BC8FF"/>
<path d="M164.755 50.0001C164.87 50.0785 165.006 50.1204 165.145 50.1201C165.333 50.119 165.513 50.0435 165.645 49.9101C165.71 49.8441 165.761 49.7659 165.795 49.6801C165.83 49.5943 165.847 49.5025 165.845 49.4101C165.844 49.2726 165.806 49.138 165.735 49.0201C165.657 48.9035 165.546 48.8128 165.416 48.7593C165.286 48.7059 165.143 48.6923 165.005 48.7201C164.869 48.7524 164.745 48.8216 164.645 48.9201C164.55 49.02 164.484 49.1447 164.455 49.2801C164.416 49.4105 164.416 49.5497 164.455 49.6801C164.517 49.817 164.623 49.9295 164.755 50.0001Z" fill="#7BC8FF"/>
<path d="M130.915 47.7996C131.03 47.8791 131.166 47.9211 131.305 47.9196C131.397 47.9175 131.489 47.9006 131.575 47.8696C131.661 47.8359 131.74 47.7847 131.805 47.7193C131.87 47.6539 131.922 47.5757 131.955 47.4896C131.97 47.4001 131.97 47.309 131.955 47.2196C131.988 47.0789 131.974 46.9316 131.915 46.7996C131.845 46.6802 131.735 46.5884 131.605 46.5396C131.472 46.4998 131.329 46.4998 131.195 46.5396C131.059 46.5658 130.934 46.632 130.835 46.7296C130.74 46.8294 130.674 46.9542 130.645 47.0896C130.6 47.2225 130.6 47.3666 130.645 47.4996C130.699 47.6273 130.794 47.7331 130.915 47.7996Z" fill="#7BC8FF"/>
<path d="M38.0553 74.9597C37.9242 74.9249 37.7864 74.9249 37.6553 74.9597C37.5184 74.9899 37.3933 75.0594 37.2953 75.1597C37.193 75.2561 37.1232 75.3819 37.0953 75.5197C37.061 75.6508 37.061 75.7885 37.0953 75.9197C37.1533 76.0467 37.2428 76.1569 37.3553 76.2397C37.4621 76.3099 37.5859 76.35 37.7137 76.3557C37.8414 76.3614 37.9683 76.3325 38.0809 76.2721C38.1936 76.2116 38.2878 76.1219 38.3537 76.0124C38.4196 75.9028 38.4547 75.7775 38.4553 75.6497C38.4555 75.5105 38.4137 75.3746 38.3353 75.2597C38.2689 75.1376 38.1726 75.0343 38.0553 74.9597Z" fill="#7BC8FF"/>
<path d="M83.4354 84.0603C83.5125 83.981 83.5706 83.8853 83.6054 83.7803L83.0054 84.2603C83.1678 84.2465 83.3202 84.1756 83.4354 84.0603Z" fill="#FF5653"/>
<path d="M83.5254 83.1804C83.4499 83.0651 83.3421 82.9747 83.2154 82.9204C83.0824 82.8755 82.9384 82.8755 82.8054 82.9204C82.6691 82.9462 82.5436 83.0124 82.4455 83.1106C82.3474 83.2087 82.2811 83.3341 82.2554 83.4704C82.2104 83.6034 82.2104 83.7475 82.2554 83.8804C82.3069 84.0088 82.398 84.1174 82.5154 84.1904C82.6298 84.27 82.7661 84.312 82.9054 84.3104H82.9654L83.5654 83.8304C83.5749 83.7608 83.5749 83.6901 83.5654 83.6204C83.6022 83.4735 83.5881 83.3184 83.5254 83.1804Z" fill="#FF5653"/>
<path d="M81.9153 60.9596C82.0959 61.0808 82.3079 61.1468 82.5253 61.1496C82.6723 61.1496 82.8178 61.1205 82.9534 61.0638C83.0891 61.0072 83.2121 60.9242 83.3153 60.8196C83.4174 60.717 83.4981 60.5953 83.553 60.4615C83.6079 60.3276 83.6359 60.1843 83.6353 60.0396C83.6375 59.8198 83.5749 59.6041 83.4553 59.4196C83.3279 59.2411 83.1553 59.0997 82.9553 59.0096C82.7518 58.9302 82.5301 58.9095 82.3153 58.9496C82.1003 58.9922 81.9022 59.0964 81.7453 59.2496C81.5924 59.4063 81.4883 59.6042 81.4457 59.819C81.4031 60.0338 81.4238 60.2564 81.5053 60.4596C81.5928 60.6612 81.7348 60.8344 81.9153 60.9596Z" fill="#7BC8FF"/>
<path d="M184.325 37.93C184.202 37.8493 184.064 37.795 183.919 37.7706C183.774 37.7462 183.625 37.7522 183.483 37.7883C183.34 37.8244 183.207 37.8898 183.091 37.9803C182.975 38.0708 182.879 38.1844 182.809 38.3139C182.74 38.4434 182.698 38.586 182.686 38.7327C182.675 38.8793 182.694 39.0267 182.742 39.1655C182.791 39.3043 182.868 39.4316 182.968 39.5391C183.068 39.6466 183.19 39.7321 183.325 39.79C183.522 39.8693 183.737 39.8902 183.945 39.85C184.15 39.8088 184.338 39.7081 184.486 39.5604C184.633 39.4127 184.734 39.2247 184.775 39.02C184.815 38.8119 184.795 38.5966 184.715 38.4C184.634 38.2085 184.499 38.045 184.325 37.93Z" fill="#FF5653"/>
<path d="M49.1352 70.4602C48.8558 70.2693 48.5392 70.1397 48.2061 70.0798C47.873 70.02 47.5311 70.0312 47.2026 70.1129C46.8742 70.1945 46.5668 70.3447 46.3005 70.5535C46.0342 70.7623 45.8151 71.0251 45.6576 71.3246C45.5 71.6241 45.4076 71.9535 45.3863 72.2913C45.3651 72.629 45.4155 72.9674 45.5343 73.2843C45.653 73.6012 45.8375 73.8894 46.0755 74.1299C46.3135 74.3705 46.5997 74.558 46.9153 74.6802C47.3552 74.8607 47.8381 74.9094 48.3052 74.8202C48.7709 74.7275 49.1984 74.4983 49.5332 74.1616C49.8681 73.825 50.0951 73.3963 50.1853 72.9302C50.2825 72.4643 50.2372 71.9799 50.0552 71.5402C49.8644 71.0957 49.5437 70.7192 49.1352 70.4602Z" fill="#FFB2C6"/>
<path d="M192.655 24.2305H192.645L192.655 24.2405V24.2305Z" fill="#F74945"/>
<path d="M183.165 31.8C183.225 31.88 183.275 31.96 183.335 32.03C184.099 32.9562 185.123 33.632 186.275 33.97C187.423 34.3147 188.647 34.3147 189.795 33.97C190.814 33.652 191.731 33.0715 192.454 32.2869C193.177 31.5022 193.681 30.5411 193.915 29.5C192.178 30.0952 190.404 30.5795 188.605 30.95C186.812 31.3507 184.995 31.6346 183.165 31.8Z" fill="#F74945"/>
<path d="M193.915 26.8802C194.034 27.4691 194.067 28.0718 194.015 28.6702C193.984 28.9492 193.937 29.2263 193.875 29.5002C197.525 28.2402 199.875 26.7502 199.655 25.6502C199.435 24.5502 196.655 24.1502 192.825 24.4702C192.885 24.5402 192.945 24.6002 192.995 24.6702C193.444 25.3395 193.756 26.0904 193.915 26.8802Z" fill="#3D5CFF"/>
<path d="M183.165 31.8003C182.643 31.1097 182.275 30.3152 182.085 29.4703C182.081 29.4505 182.081 29.43 182.085 29.4103C181.904 28.629 181.887 27.8185 182.035 27.0303C182.046 26.9459 182.063 26.8624 182.085 26.7803C178.445 28.0403 176.085 29.5203 176.315 30.6203C176.545 31.7203 179.305 32.0903 183.165 31.8003Z" fill="#3D5CFF"/>
<path d="M193.915 26.8799C194.045 27.6699 191.535 28.8799 188.275 29.5599C185.015 30.2399 182.375 30.1599 182.065 29.4299C182.255 30.2905 182.631 31.0993 183.165 31.7999C184.988 31.6468 186.798 31.3763 188.585 30.9899C190.392 30.6071 192.172 30.1094 193.915 29.4999C193.977 29.226 194.024 28.9489 194.055 28.6699C194.094 28.0696 194.047 27.4668 193.915 26.8799Z" fill="#3D5CFF"/>
<path d="M182.625 25.2905C183.182 24.2271 184.041 23.3532 185.096 22.7799C186.15 22.2065 187.351 21.9596 188.545 22.0705C189.339 22.1409 190.111 22.3686 190.815 22.7405C191.522 23.11 192.147 23.6165 192.655 24.2305C192.275 23.7546 191.827 23.3369 191.325 22.9905C190.656 22.5478 189.906 22.242 189.119 22.091C188.331 21.9399 187.521 21.9466 186.735 22.1105C185.591 22.3438 184.539 22.9062 183.71 23.7287C182.88 24.5511 182.309 25.5979 182.065 26.7405C182.188 26.2349 182.377 25.7475 182.625 25.2905Z" fill="#F74945"/>
<path d="M192.845 24.4702L192.665 24.2402L192.815 24.4702H192.845Z" fill="#F74945"/>
<path d="M182.065 29.37C182.061 29.3898 182.061 29.4102 182.065 29.43C182.01 29.2063 181.97 28.9791 181.945 28.75C181.884 28.0801 181.931 27.4047 182.085 26.75C182.063 26.8321 182.046 26.9156 182.035 27C181.882 27.7836 181.892 28.5906 182.065 29.37Z" fill="#F74945"/>
<path d="M193.785 26.3097C193.845 26.4964 193.895 26.6864 193.935 26.8797C193.776 26.0899 193.464 25.339 193.015 24.6697C193.015 24.5997 192.905 24.5397 192.845 24.4697C193.26 25.0255 193.578 25.6476 193.785 26.3097Z" fill="#F74945"/>
<path d="M193.785 26.3096C193.56 25.6434 193.222 25.021 192.785 24.4696L192.635 24.2396C192.127 23.6257 191.502 23.1191 190.795 22.7496C190.091 22.3778 189.319 22.15 188.525 22.0796C187.331 21.9687 186.13 22.2156 185.076 22.789C184.021 23.3624 183.162 24.2363 182.605 25.2996C182.371 25.7554 182.197 26.2394 182.085 26.7396C181.931 27.3943 181.884 28.0697 181.945 28.7396C181.97 28.9687 182.01 29.1959 182.065 29.4196C182.375 30.1496 185.065 30.2196 188.275 29.5496C191.485 28.8796 194.045 27.6596 193.915 26.8696C193.915 26.6896 193.872 26.5029 193.785 26.3096Z" fill="#F74945"/>
<path d="M77.7254 51.7203C78.3713 51.9437 79.0793 51.9017 79.6943 51.6036C80.3092 51.3055 80.7808 50.7757 81.0054 50.1303C81.18 49.6112 81.18 49.0493 81.0054 48.5303C79.2988 48.9836 77.6521 49.4669 76.0654 49.9803C76.1823 50.3822 76.3942 50.75 76.6831 51.0529C76.972 51.3557 77.3295 51.5846 77.7254 51.7203Z" fill="#3D5CFF"/>
<path d="M142.275 58.01C141.717 58.0205 141.185 58.2512 140.795 58.652C140.406 59.0528 140.19 59.5911 140.195 60.15C140.205 60.6124 140.366 61.0589 140.655 61.42C140.707 61.5 140.767 61.5738 140.835 61.64L144.335 60.73C144.391 60.5347 144.421 60.333 144.425 60.13C144.425 59.849 144.37 59.5709 144.261 59.3117C144.153 59.0525 143.994 58.8175 143.794 58.6202C143.594 58.4229 143.357 58.2674 143.096 58.1627C142.835 58.0579 142.556 58.006 142.275 58.01Z" fill="#F74945"/>
<path d="M150.165 47.3398C153.875 48.0898 154.555 51.8498 154.825 55.5498C154.816 55.5791 154.816 55.6105 154.825 55.6398C154.853 55.6644 154.888 55.678 154.925 55.678C154.962 55.678 154.998 55.6644 155.025 55.6398C155.033 55.6103 155.033 55.5793 155.025 55.5498C155.105 52.2298 155.905 48.1298 159.675 47.3398C159.698 47.3328 159.717 47.3188 159.731 47.3C159.745 47.2811 159.752 47.2582 159.752 47.2348C159.752 47.2113 159.745 47.1885 159.731 47.1696C159.717 47.1507 159.698 47.1368 159.675 47.1298C156.195 46.7398 155.225 42.8598 155.025 38.9198C155.017 38.8859 154.999 38.8549 154.975 38.8298C154.946 38.8199 154.914 38.8199 154.885 38.8298C154.853 38.8198 154.818 38.8198 154.785 38.8298C154.778 38.8593 154.778 38.8903 154.785 38.9198C154.595 42.3898 153.965 46.2798 150.125 47.1298H150.065C150.059 47.1527 150.059 47.1768 150.065 47.1998C150.061 47.2196 150.061 47.24 150.065 47.2598L150.165 47.3398Z" fill="#5F70FA"/>
<path d="M105.255 55.5497C105.255 55.5497 105.255 55.5497 105.205 55.5497C105.105 57.4597 104.755 59.5497 102.655 60.0497C103.087 60.1273 103.49 60.3169 103.825 60.5997C104.285 59.2064 104.833 57.8437 105.465 56.5197C105.465 56.1597 105.375 55.7997 105.355 55.4297L105.255 55.5497Z" fill="#3D5CFF"/>
<path d="M105.125 64.7097H105.235C105.235 62.8797 105.725 60.6397 107.795 60.2097V60.0897C106.205 59.9197 105.575 58.4097 105.345 56.6797C104.725 58.0176 104.191 59.3938 103.745 60.7997C104.765 61.5897 105.015 63.1597 105.125 64.7097Z" fill="#3D5CFF"/>
<path d="M70.7054 68.1602C70.4429 68.1621 70.1863 68.2384 69.9654 68.3802C69.7473 68.5284 69.5771 68.7369 69.4754 68.9802C69.3699 69.2224 69.3419 69.4914 69.3954 69.7502C69.4477 70.0096 69.5726 70.2488 69.7554 70.4402C69.944 70.6268 70.1844 70.7522 70.4454 70.8002C70.7031 70.8574 70.9722 70.833 71.2154 70.7302C71.4586 70.6284 71.6671 70.4582 71.8154 70.2402C71.9584 70.0161 72.0347 69.756 72.0354 69.4902C72.0354 69.1374 71.8952 68.7991 71.6458 68.5497C71.3964 68.3003 71.0581 68.1602 70.7054 68.1602Z" fill="#FF5653"/>
<path d="M56.8454 89.4297C56.578 89.4292 56.3166 89.5094 56.0954 89.6597C55.8781 89.8088 55.7081 90.017 55.6054 90.2597C55.5099 90.5053 55.4884 90.7734 55.5435 91.0311C55.5986 91.2887 55.7279 91.5246 55.9154 91.7097C56.1034 91.899 56.3437 92.0278 56.6054 92.0797C56.8552 92.1167 57.1104 92.0829 57.342 91.9822C57.5735 91.8814 57.7722 91.7177 57.9154 91.5097C58.0571 91.2887 58.1334 91.0322 58.1354 90.7697C58.1358 90.595 58.1016 90.422 58.0346 90.2606C57.9677 90.0992 57.8694 89.9528 57.7454 89.8297C57.5071 89.5869 57.1853 89.4439 56.8454 89.4297Z" fill="#3D5CFF"/>
<path d="M51.9153 64.2402C51.7907 64.1142 51.6299 64.0303 51.4553 64.0002C51.2897 63.9453 51.1108 63.9453 50.9453 64.0002C50.783 64.0695 50.6442 64.1841 50.5453 64.3302C50.4484 64.4748 50.3994 64.6462 50.4053 64.8202C50.4064 65.0541 50.4956 65.2791 50.6553 65.4502C50.8253 65.6126 51.0501 65.7054 51.2853 65.7102C51.4607 65.7084 51.6317 65.6554 51.7774 65.5577C51.9231 65.4599 52.037 65.3218 52.1053 65.1602C52.1767 65.0001 52.1942 64.8211 52.1553 64.6502C52.1159 64.4935 52.0326 64.3513 51.9153 64.2402Z" fill="#7BC8FF"/>
<path d="M89.5652 73.9403C89.4652 73.9403 89.4652 74.0503 89.5652 74.0703H89.7052L90.3952 73.7803C90.1225 73.8522 89.8452 73.9056 89.5652 73.9403Z" fill="#5F70FA"/>
<path d="M98.6453 73.9396C95.0153 73.4096 94.4153 70.9996 94.2353 68.8496C94.2353 68.8496 94.1753 68.7696 94.1053 68.7696C94.0782 68.7689 94.0515 68.7761 94.0285 68.7903C94.0054 68.8045 93.9869 68.8251 93.9753 68.8496C93.9845 69.6688 93.8095 70.4796 93.4634 71.2221C93.1172 71.9646 92.6087 72.6199 91.9753 73.1396L91.7253 73.3196C91.3104 73.5515 90.8616 73.7169 90.3953 73.8096L89.7053 74.0996C90.3844 74.1923 91.0414 74.4056 91.6453 74.7296C92.2189 75.056 92.7123 75.5064 93.0894 76.0479C93.4666 76.5895 93.718 77.2084 93.8253 77.8596C93.9142 78.2909 93.9643 78.7293 93.9753 79.1696C93.9753 79.1696 94.0353 79.2396 94.1053 79.2396C94.1753 79.2396 94.2253 79.2396 94.2353 79.1696C94.2804 77.8034 94.7722 76.4896 95.6353 75.4296C95.9809 75.0719 96.3916 74.7834 96.8453 74.5796C97.4145 74.3152 98.0221 74.1431 98.6453 74.0696C98.7453 74.0596 98.7453 73.9596 98.6453 73.9396Z" fill="#5F70FA"/>
<path d="M19.9153 81.1301C19.8291 81.0521 19.7313 80.988 19.6253 80.9401C19.5169 80.8971 19.4019 80.8735 19.2853 80.8701C19.111 80.8721 18.9409 80.9242 18.7953 81.0201C18.6492 81.1191 18.5347 81.2579 18.4653 81.4201C18.4103 81.5891 18.4103 81.7711 18.4653 81.9401C18.498 82.1109 18.5817 82.2678 18.7053 82.3901C18.8276 82.5138 18.9845 82.5975 19.1553 82.6301C19.3243 82.6851 19.5064 82.6851 19.6753 82.6301C19.8371 82.565 19.9762 82.4537 20.0753 82.3101C20.153 82.1519 20.1875 81.976 20.1753 81.8001C20.172 81.6836 20.1483 81.5685 20.1053 81.4601C20.0613 81.3401 19.997 81.2285 19.9153 81.1301Z" fill="#FFB2C6"/>
<path d="M31.1853 81.4798C30.5231 81.9252 30.0052 82.5543 29.6953 83.2898C29.3952 84.0315 29.3154 84.8439 29.4653 85.6298V85.7198C32.1053 84.2498 34.4653 82.9098 36.2253 81.9698C35.5688 81.3118 34.7036 80.9029 33.7784 80.8135C32.8532 80.7241 31.9257 80.9597 31.1553 81.4798H31.1853Z" fill="#5F70FA"/>
</svg>
